<?xml version="1.0" encoding="UTF-8"?>
<!DOCTYPE svg PUBLIC "-//W3C//DTD SVG 1.1//EN" "http://www.w3.org/Graphics/SVG/1.1/DTD/svg11.dtd">
<svg xmlns="http://www.w3.org/2000/svg" version="1.1" width="512px" height="512px" style="shape-rendering:geometricPrecision; text-rendering:geometricPrecision; image-rendering:optimizeQuality; fill-rule:evenodd; clip-rule:evenodd" xmlns:xlink="http://www.w3.org/1999/xlink">
<g><path style="opacity:0.973" fill="#fff" d="M 421.5,52.5 C 431.121,51.0596 437.955,54.7263 442,63.5C 442.5,74.1615 442.667,84.8281 442.5,95.5C 453.172,95.3335 463.839,95.5002 474.5,96C 485.09,101.436 487.924,109.603 483,120.5C 480.736,123.433 477.902,125.6 474.5,127C 463.839,127.5 453.172,127.667 442.5,127.5C 442.667,138.172 442.5,148.839 442,159.5C 436.361,170.691 427.861,173.525 416.5,168C 413.894,166.062 412.061,163.562 411,160.5C 409.569,149.578 409.069,138.578 409.5,127.5C 398.828,127.667 388.161,127.5 377.5,127C 370.513,124.193 367.18,119.027 367.5,111.5C 367.18,103.973 370.513,98.8068 377.5,96C 388.161,95.5002 398.828,95.3335 409.5,95.5C 409.334,85.4944 409.5,75.4944 410,65.5C 411.617,59.0578 415.45,54.7245 421.5,52.5 Z"/></g>
<g><path style="opacity:0.971" fill="#fff" d="M 185.5,63.5 C 225.168,63.3333 264.835,63.5 304.5,64C 312.636,68.4419 315.802,75.2753 314,84.5C 312.314,89.3942 309.147,92.8942 304.5,95C 266.774,95.0183 229.107,95.685 191.5,97C 183.284,111.931 175.45,127.098 168,142.5C 162.188,150.827 154.354,156.327 144.5,159C 122.135,159.078 99.8012,159.745 77.5,161C 67.3905,164.776 61.2239,171.943 59,182.5C 58.3333,256.167 58.3333,329.833 59,403.5C 61.415,414.914 68.2483,422.081 79.5,425C 196.833,425.667 314.167,425.667 431.5,425C 442.752,422.081 449.585,414.914 452,403.5C 452.333,340.167 452.667,276.833 453,213.5C 455.536,205.887 460.869,201.887 469,201.5C 477.279,202.295 482.612,206.628 485,214.5C 485.667,278.167 485.667,341.833 485,405.5C 480.41,434.757 463.577,452.257 434.5,458C 315.167,458.667 195.833,458.667 76.5,458C 47.4229,452.257 30.5895,434.757 26,405.5C 25.3333,330.167 25.3333,254.833 26,179.5C 30.745,152.089 46.5784,134.922 73.5,128C 95.2304,127.967 116.897,127.301 138.5,126C 147.08,110.339 155.247,94.5059 163,78.5C 169.045,71.0781 176.545,66.0781 185.5,63.5 Z M 246.5,213.5 C 286.441,211.963 311.941,230.296 323,268.5C 327.408,303.187 314.241,328.687 283.5,345C 248.055,357.74 219.222,348.907 197,318.5C 181.513,290.16 183.513,263.16 203,237.5C 214.898,224.637 229.398,216.637 246.5,213.5 Z"/></g>
<g><path style="opacity:0.964" fill="#fff" d="M 243.5,180.5 C 293.098,178.037 328.598,199.037 350,243.5C 365.624,289.172 355.79,328.339 320.5,361C 288.343,385.191 253.343,390.191 215.5,376C 176.217,357.288 155.55,326.122 153.5,282.5C 157.757,225.586 187.757,191.586 243.5,180.5 Z M 246.5,213.5 C 229.398,216.637 214.898,224.637 203,237.5C 183.513,263.16 181.513,290.16 197,318.5C 219.222,348.907 248.055,357.74 283.5,345C 314.241,328.687 327.408,303.187 323,268.5C 311.941,230.296 286.441,211.963 246.5,213.5 Z"/></g>
</svg>
