<?xml version="1.0" encoding="UTF-8"?>
<!DOCTYPE svg PUBLIC "-//W3C//DTD SVG 1.1//EN" "http://www.w3.org/Graphics/SVG/1.1/DTD/svg11.dtd">
<svg xmlns="http://www.w3.org/2000/svg" version="1.1" width="512px" height="512px" style="shape-rendering:geometricPrecision; text-rendering:geometricPrecision; image-rendering:optimizeQuality; fill-rule:evenodd; clip-rule:evenodd" xmlns:xlink="http://www.w3.org/1999/xlink">
<g><path style="opacity:0.997" fill="#000F26" d="M 189.5,-0.5 C 211.5,-0.5 233.5,-0.5 255.5,-0.5C 255.5,49.8333 255.5,100.167 255.5,150.5C 209.856,152.565 177.356,174.231 158,215.5C 144.224,254.644 149.891,290.644 175,323.5C 196.371,347.601 223.205,359.934 255.5,360.5C 255.5,410.833 255.5,461.167 255.5,511.5C 233.5,511.5 211.5,511.5 189.5,511.5C 184.766,509.261 181.599,505.594 180,500.5C 179.922,484.455 179.255,468.455 178,452.5C 166.847,424.341 146.68,414.507 117.5,423C 105.5,429.667 93.5,436.333 81.5,443C 71.848,444.924 65.0147,441.424 61,432.5C 41.3333,398.167 21.6667,363.833 2,329.5C 0.0516044,322.135 1.88494,315.968 7.5,311C 18.8333,304.333 30.1667,297.667 41.5,291C 61.2496,272.421 64.0829,251.588 50,228.5C 47.1667,225.667 44.3333,222.833 41.5,220C 30.1667,213.333 18.8333,206.667 7.5,200C 0.489393,192.561 -0.34394,184.394 5,175.5C 24.6667,141.5 44.3333,107.5 64,73.5C 69.7874,67.5183 76.6208,66.0183 84.5,69C 93.335,74.5852 102.335,79.9186 111.5,85C 137.091,97.2186 157.925,91.7186 174,68.5C 175.725,65.326 177.058,61.9927 178,58.5C 179.255,42.5448 179.922,26.5448 180,10.5C 181.599,5.40601 184.766,1.73934 189.5,-0.5 Z"/></g>
<g><path style="opacity:0.7" fill="#000F26" d="M 255.5,-0.5 C 277.5,-0.5 299.5,-0.5 321.5,-0.5C 325.479,1.31481 328.312,4.31481 330,8.5C 331.253,24.1216 331.92,39.7883 332,55.5C 339.279,80.7364 356.112,92.5697 382.5,91C 387.021,90.2707 391.354,88.9374 395.5,87C 405.67,80.7475 416.003,74.7475 426.5,69C 435.482,65.5521 442.649,67.7187 448,75.5C 468.586,111.004 488.92,146.671 509,182.5C 510.572,189.449 508.739,195.282 503.5,200C 493.5,205.667 483.5,211.333 473.5,217C 450.708,233.951 445.874,255.117 459,280.5C 462.167,285 466,288.833 470.5,292C 481.337,298.586 492.337,304.919 503.5,311C 508.739,315.718 510.572,321.551 509,328.5C 488.92,364.329 468.586,399.996 448,435.5C 442.649,443.281 435.482,445.448 426.5,442C 413.915,434.208 400.915,427.208 387.5,421C 364.039,416.649 346.539,424.816 335,445.5C 333.798,448.774 332.798,452.107 332,455.5C 331.92,471.212 331.253,486.878 330,502.5C 328.312,506.685 325.479,509.685 321.5,511.5C 299.5,511.5 277.5,511.5 255.5,511.5C 255.5,461.167 255.5,410.833 255.5,360.5C 303.842,357.978 337.009,334.311 355,289.5C 369.19,236.083 353.357,194.25 307.5,164C 291.298,155.116 273.965,150.616 255.5,150.5C 255.5,100.167 255.5,49.8333 255.5,-0.5 Z"/></g>
<g><path style="opacity:0.2" fill="#000F26" d="M 255.5,150.5 C 273.965,150.616 291.298,155.116 307.5,164C 353.357,194.25 369.19,236.083 355,289.5C 337.009,334.311 303.842,357.978 255.5,360.5C 255.5,290.5 255.5,220.5 255.5,150.5 Z"/></g>
<g><path style="opacity:0.4" fill="#000F26" d="M 255.5,150.5 C 255.5,220.5 255.5,290.5 255.5,360.5C 223.205,359.934 196.371,347.601 175,323.5C 149.891,290.644 144.224,254.644 158,215.5C 177.356,174.231 209.856,152.565 255.5,150.5 Z"/></g>
</svg>
