<?xml version="1.0" encoding="UTF-8"?>
<!DOCTYPE svg PUBLIC "-//W3C//DTD SVG 1.1//EN" "http://www.w3.org/Graphics/SVG/1.1/DTD/svg11.dtd">
<svg xmlns="http://www.w3.org/2000/svg" version="1.1" width="512px" height="512px" style="shape-rendering:geometricPrecision; text-rendering:geometricPrecision; image-rendering:optimizeQuality; fill-rule:evenodd; clip-rule:evenodd" xmlns:xlink="http://www.w3.org/1999/xlink">
<g><path style="opacity:0.965" fill="#fff" d="M 190.5,-0.5 C 234.5,-0.5 278.5,-0.5 322.5,-0.5C 326.479,1.31481 329.312,4.31481 331,8.5C 332.253,24.1216 332.92,39.7883 333,55.5C 340.279,80.7364 357.112,92.5697 383.5,91C 388.021,90.2707 392.354,88.9374 396.5,87C 406.67,80.7475 417.003,74.7475 427.5,69C 436.482,65.5521 443.649,67.7187 449,75.5C 469.586,111.004 489.92,146.671 510,182.5C 511.572,189.449 509.739,195.282 504.5,200C 494.5,205.667 484.5,211.333 474.5,217C 451.708,233.951 446.874,255.117 460,280.5C 463.167,285 467,288.833 471.5,292C 482.337,298.586 493.337,304.919 504.5,311C 509.739,315.718 511.572,321.551 510,328.5C 489.92,364.329 469.586,399.996 449,435.5C 443.649,443.281 436.482,445.448 427.5,442C 414.915,434.208 401.915,427.208 388.5,421C 365.039,416.649 347.539,424.816 336,445.5C 334.798,448.774 333.798,452.107 333,455.5C 332.92,471.212 332.253,486.878 331,502.5C 329.312,506.685 326.479,509.685 322.5,511.5C 278.5,511.5 234.5,511.5 190.5,511.5C 185.766,509.261 182.599,505.594 181,500.5C 180.922,484.455 180.255,468.455 179,452.5C 167.847,424.341 147.68,414.507 118.5,423C 106.5,429.667 94.5,436.333 82.5,443C 72.848,444.924 66.0147,441.424 62,432.5C 42.3333,398.167 22.6667,363.833 3,329.5C 1.0516,322.135 2.88494,315.968 8.5,311C 19.8333,304.333 31.1667,297.667 42.5,291C 62.3452,272.435 65.1785,251.602 51,228.5C 48.1667,225.667 45.3333,222.833 42.5,220C 31.1667,213.333 19.8333,206.667 8.5,200C 1.48939,192.561 0.65606,184.394 6,175.5C 25.6667,141.5 45.3333,107.5 65,73.5C 70.7874,67.5183 77.6208,66.0183 85.5,69C 94.335,74.5852 103.335,79.9186 112.5,85C 138.091,97.2186 158.925,91.7186 175,68.5C 176.725,65.326 178.058,61.9927 179,58.5C 180.255,42.5448 180.922,26.5448 181,10.5C 182.599,5.40601 185.766,1.73934 190.5,-0.5 Z M 211.5,29.5 C 241.5,29.5 271.5,29.5 301.5,29.5C 297.202,58.7743 305.535,83.6076 326.5,104C 348.507,121.668 373.174,126.668 400.5,119C 410.433,114.531 420.1,109.864 429.5,105C 444.167,130.333 458.833,155.667 473.5,181C 464.997,186.084 456.664,191.417 448.5,197C 422.538,221.463 415.371,250.63 427,284.5C 431.847,296.015 439.013,305.848 448.5,314C 456.664,319.583 464.997,324.916 473.5,330C 458.664,355.652 443.664,381.152 428.5,406.5C 413.194,395.231 396.028,389.231 377,388.5C 343.319,389.871 319.652,405.871 306,436.5C 304.198,441.375 302.865,446.375 302,451.5C 301.5,461.494 301.334,471.494 301.5,481.5C 271.5,481.5 241.5,481.5 211.5,481.5C 216.37,438.369 199.037,408.535 159.5,392C 142.717,387.073 126.05,387.406 109.5,393C 100.794,397.103 92.294,401.603 84,406.5C 68.7812,381.23 53.9479,355.73 39.5,330C 48.6424,324.259 57.6424,318.259 66.5,312C 88.5509,289.968 95.7175,263.801 88,233.5C 84.0014,219.998 76.8348,208.498 66.5,199C 57.6424,192.741 48.6424,186.741 39.5,181C 53.9479,155.27 68.7812,129.77 84,104.5C 96.4809,113.489 110.314,119.322 125.5,122C 164.04,124.656 191.207,108.49 207,73.5C 211.071,59.1281 212.571,44.4614 211.5,29.5 Z M 255.5,180.5 C 295.894,183.728 320.728,205.062 330,244.5C 333.221,281.234 318.388,307.734 285.5,324C 250.629,336.407 221.129,328.574 197,300.5C 175.43,267.869 176.763,236.202 201,205.5C 216.066,190.214 234.232,181.881 255.5,180.5 Z"/></g>
<g><path style="opacity:0.962" fill="#fff" d="M 241.5,150.5 C 288.633,146.649 324.467,164.649 349,204.5C 365.667,238.5 365.667,272.5 349,306.5C 324.487,346.506 288.654,364.339 241.5,360C 185.016,348.012 154.682,313.178 150.5,255.5C 154.871,197.807 185.205,162.807 241.5,150.5 Z M 255.5,180.5 C 234.232,181.881 216.066,190.214 201,205.5C 176.763,236.202 175.43,267.869 197,300.5C 221.129,328.574 250.629,336.407 285.5,324C 318.388,307.734 333.221,281.234 330,244.5C 320.728,205.062 295.894,183.728 255.5,180.5 Z"/></g>
</svg>
