<?xml version="1.0" encoding="UTF-8"?>
<!DOCTYPE svg PUBLIC "-//W3C//DTD SVG 1.1//EN" "http://www.w3.org/Graphics/SVG/1.1/DTD/svg11.dtd">
<svg xmlns="http://www.w3.org/2000/svg" version="1.1" width="512px" height="512px" style="shape-rendering:geometricPrecision; text-rendering:geometricPrecision; image-rendering:optimizeQuality; fill-rule:evenodd; clip-rule:evenodd" xmlns:xlink="http://www.w3.org/1999/xlink">
<g><path style="opacity:0.946" fill="#fff" d="M 32.5,-0.5 C 181.167,-0.5 329.833,-0.5 478.5,-0.5C 495.167,4.83333 506.167,15.8333 511.5,32.5C 511.5,138.5 511.5,244.5 511.5,350.5C 506.349,367.15 495.349,377.984 478.5,383C 426.834,383.5 375.168,383.667 323.5,383.5C 323.5,377.5 323.5,371.5 323.5,365.5C 374.168,365.667 424.834,365.5 475.5,365C 482.857,362.311 488.357,357.478 492,350.5C 493.66,245.556 493.993,140.556 493,35.5C 489.833,27 484,21.1667 475.5,18C 328.833,17.3333 182.167,17.3333 35.5,18C 27,21.1667 21.1667,27 18,35.5C 17.3333,139.5 17.3333,243.5 18,347.5C 19.8645,352.065 22.3645,356.231 25.5,360C 21.7898,364.575 17.9565,369.075 14,373.5C 6.59827,367.344 1.76494,359.678 -0.5,350.5C -0.5,244.5 -0.5,138.5 -0.5,32.5C 4.83333,15.8333 15.8333,4.83333 32.5,-0.5 Z M 249.5,136.5 C 281.795,136.961 297.628,153.294 297,185.5C 290.129,210.694 273.629,222.194 247.5,220C 223.35,212.843 212.183,196.677 214,171.5C 218.464,152.202 230.297,140.535 249.5,136.5 Z M 403.5,136.5 C 431.652,136.654 447.652,150.654 451.5,178.5C 449.428,200.059 438.095,213.893 417.5,220C 392.16,222.583 375.66,211.749 368,187.5C 364.984,168.89 371.15,154.057 386.5,143C 392.02,140.11 397.686,137.943 403.5,136.5 Z"/></g>
<g><path style="opacity:0.899" fill="#fff" d="M 41.5,33.5 C 47.5,33.5 53.5,33.5 59.5,33.5C 59.5,39.5 59.5,45.5 59.5,51.5C 53.5,51.5 47.5,51.5 41.5,51.5C 41.5,45.5 41.5,39.5 41.5,33.5 Z"/></g>
<g><path style="opacity:0.899" fill="#fff" d="M 75.5,33.5 C 81.5,33.5 87.5,33.5 93.5,33.5C 93.5,39.5 93.5,45.5 93.5,51.5C 87.5,51.5 81.5,51.5 75.5,51.5C 75.5,45.5 75.5,39.5 75.5,33.5 Z"/></g>
<g><path style="opacity:0.899" fill="#fff" d="M 109.5,33.5 C 115.5,33.5 121.5,33.5 127.5,33.5C 127.5,39.5 127.5,45.5 127.5,51.5C 121.5,51.5 115.5,51.5 109.5,51.5C 109.5,45.5 109.5,39.5 109.5,33.5 Z"/></g>
<g><path style="opacity:0.945" fill="#fff" d="M 41.5,67.5 C 184.167,67.5 326.833,67.5 469.5,67.5C 469.5,73.5 469.5,79.5 469.5,85.5C 326.833,85.5 184.167,85.5 41.5,85.5C 41.5,79.5 41.5,73.5 41.5,67.5 Z"/></g>
<g><path style="opacity:0.927" fill="#fff" d="M 94.5,118.5 C 119.203,116.688 138.536,125.854 152.5,146C 147.5,149.167 142.5,152.333 137.5,155.5C 120.17,134.802 99.8371,131.302 76.5,145C 63.3843,155.849 58.051,169.682 60.5,186.5C 54.7726,187.177 49.1059,188.177 43.5,189.5C 38.9111,158.847 50.5778,136.68 78.5,123C 83.8742,121.16 89.2075,119.66 94.5,118.5 Z"/></g>
<g><path style="opacity:0.936" fill="#fff" d="M 247.5,118.5 C 284.035,117.228 306.535,134.228 315,169.5C 317.505,205.648 301.338,228.481 266.5,238C 228.943,241.319 205.443,224.819 196,188.5C 193.522,150.504 210.689,127.171 247.5,118.5 Z M 249.5,136.5 C 230.297,140.535 218.464,152.202 214,171.5C 212.183,196.677 223.35,212.843 247.5,220C 273.629,222.194 290.129,210.694 297,185.5C 297.628,153.294 281.795,136.961 249.5,136.5 Z"/></g>
<g><path style="opacity:0.934" fill="#fff" d="M 400.5,118.5 C 435.265,116.791 457.765,132.457 468,165.5C 472.532,193.589 463.032,215.422 439.5,231C 406.008,246.241 378.508,239.075 357,209.5C 342.072,178.053 347.906,151.22 374.5,129C 382.592,123.809 391.259,120.309 400.5,118.5 Z M 403.5,136.5 C 397.686,137.943 392.02,140.11 386.5,143C 371.15,154.057 364.984,168.89 368,187.5C 375.66,211.749 392.16,222.583 417.5,220C 438.095,213.893 449.428,200.059 451.5,178.5C 447.652,150.654 431.652,136.654 403.5,136.5 Z"/></g>
<g><path style="opacity:0.916" fill="#fff" d="M 273.5,155.5 C 279.004,158.323 283.671,162.323 287.5,167.5C 276.014,179.486 264.348,191.319 252.5,203C 248.833,205 245.167,205 241.5,203C 235.667,197.167 229.833,191.333 224,185.5C 226.818,180.338 230.818,176.004 236,172.5C 239.954,175.451 243.621,178.784 247,182.5C 256.036,173.632 264.869,164.632 273.5,155.5 Z"/></g>
<g><path style="opacity:0.91" fill="#fff" d="M 427.5,155.5 C 433.004,158.323 437.671,162.323 441.5,167.5C 430.014,179.486 418.348,191.319 406.5,203C 402.5,205 398.5,205 394.5,203C 388.5,197 382.5,191 376.5,185C 380.682,180.651 385.015,176.485 389.5,172.5C 392.985,175.484 396.318,178.651 399.5,182C 400.167,182.667 400.833,182.667 401.5,182C 410.369,173.298 419.036,164.465 427.5,155.5 Z"/></g>
<g><path style="opacity:0.941" fill="#fff" d="M 251.5,511.5 C 168.833,511.5 86.1667,511.5 3.5,511.5C 2.5,509.833 1.16667,508.5 -0.5,507.5C -0.5,476.5 -0.5,445.5 -0.5,414.5C 2.82277,400.333 11.1561,390.167 24.5,384C 40.0618,378.219 55.3952,371.886 70.5,365C 82.9896,355.195 86.823,342.695 82,327.5C 75.2114,318.704 69.2114,309.37 64,299.5C 61.3154,292.744 59.6488,285.744 59,278.5C 58.3333,263.167 58.3333,247.833 59,232.5C 65.3646,193.637 88.198,172.637 127.5,169.5C 157.72,171.187 178.886,185.853 191,213.5C 193.685,220.256 195.351,227.256 196,234.5C 196.667,249.167 196.667,263.833 196,278.5C 195.014,288.792 192.014,298.459 187,307.5C 182.333,314.167 177.667,320.833 173,327.5C 168.621,340.484 171.121,351.984 180.5,362C 184.844,365.422 189.677,367.922 195,369.5C 228.839,351.75 261.339,353.917 292.5,376C 300.614,382.782 307.281,390.782 312.5,400C 363.167,400.333 413.833,400.667 464.5,401C 472.257,410.653 479.423,420.82 486,431.5C 486.841,435.12 486.174,438.454 484,441.5C 477.956,450.421 471.79,459.254 465.5,468C 457.245,469.572 448.911,469.905 440.5,469C 435.077,465.581 430.244,461.415 426,456.5C 422.167,460.333 418.333,464.167 414.5,468C 406.245,469.572 397.911,469.905 389.5,469C 384.077,465.581 379.244,461.415 375,456.5C 370.756,461.415 365.923,465.581 360.5,469C 344.5,469.333 328.5,469.667 312.5,470C 298.281,492.779 277.948,506.613 251.5,511.5 Z M 122.5,187.5 C 151.252,187.751 169.419,201.751 177,229.5C 178.984,247.171 178.984,264.837 177,282.5C 175.789,288.132 173.789,293.466 171,298.5C 163.018,306.795 157.352,316.462 154,327.5C 149.902,352.131 158.402,370.964 179.5,384C 161.72,406.569 156.887,431.736 165,459.5C 169.638,472.617 177.138,483.783 187.5,493C 130.834,493.5 74.1676,493.667 17.5,493.5C 17.3334,468.164 17.5,442.831 18,417.5C 20.0182,410.954 23.8515,405.787 29.5,402C 46.9966,395.057 64.3299,387.723 81.5,380C 102.986,361.937 107.819,340.104 96,314.5C 87.6868,305.544 81.6868,295.211 78,283.5C 76.4453,267.202 76.112,250.869 77,234.5C 81.2299,208.105 96.3965,192.439 122.5,187.5 Z M 230.5,375.5 C 258.286,374.311 280.12,384.978 296,407.5C 296.831,412.681 299.664,416.181 304.5,418C 354.833,418.333 405.167,418.667 455.5,419C 459.414,424.159 463.08,429.493 466.5,435C 462.629,439.907 459.129,445.074 456,450.5C 452.927,451.617 449.76,451.784 446.5,451C 441.167,445.667 435.833,440.333 430.5,435C 427.036,434.183 423.702,434.517 420.5,436C 415.5,441 410.5,446 405.5,451C 402.167,451.667 398.833,451.667 395.5,451C 390.5,446 385.5,441 380.5,436C 377.634,434.543 374.634,434.21 371.5,435C 365.531,439.967 359.865,445.301 354.5,451C 337.167,451.333 319.833,451.667 302.5,452C 298.21,458.08 294.043,464.247 290,470.5C 265.052,495.558 236.885,500.058 205.5,484C 178.96,462.67 172.793,436.504 187,405.5C 197.008,388.918 211.508,378.918 230.5,375.5 Z M 219.5,426.5 C 225.984,426.815 229.151,430.148 229,436.5C 227.268,441.617 223.768,443.45 218.5,442C 214.139,439.774 212.639,436.274 214,431.5C 215.406,429.256 217.239,427.59 219.5,426.5 Z"/></g>
<g><path style="opacity:0.941" fill="#fff" d="M 212.5,255.5 C 241.167,255.5 269.833,255.5 298.5,255.5C 298.5,261.5 298.5,267.5 298.5,273.5C 269.833,273.5 241.167,273.5 212.5,273.5C 212.5,267.5 212.5,261.5 212.5,255.5 Z"/></g>
<g><path style="opacity:0.93" fill="#fff" d="M 365.5,255.5 C 394.5,255.5 423.5,255.5 452.5,255.5C 452.5,261.5 452.5,267.5 452.5,273.5C 423.5,273.5 394.5,273.5 365.5,273.5C 365.5,267.5 365.5,261.5 365.5,255.5 Z"/></g>
<g><path style="opacity:0.941" fill="#fff" d="M 212.5,289.5 C 241.167,289.5 269.833,289.5 298.5,289.5C 298.5,295.5 298.5,301.5 298.5,307.5C 269.833,307.5 241.167,307.5 212.5,307.5C 212.5,301.5 212.5,295.5 212.5,289.5 Z"/></g>
<g><path style="opacity:0.93" fill="#fff" d="M 365.5,289.5 C 394.5,289.5 423.5,289.5 452.5,289.5C 452.5,295.5 452.5,301.5 452.5,307.5C 423.5,307.5 394.5,307.5 365.5,307.5C 365.5,301.5 365.5,295.5 365.5,289.5 Z"/></g>
<g><path style="opacity:0.934" fill="#fff" d="M 216.5,408.5 C 234.778,407.783 245.112,416.45 247.5,434.5C 246.41,451.09 237.577,459.757 221,460.5C 202.156,458.176 193.823,447.51 196,428.5C 199.044,417.904 205.878,411.237 216.5,408.5 Z M 219.5,426.5 C 217.239,427.59 215.406,429.256 214,431.5C 212.639,436.274 214.139,439.774 218.5,442C 223.768,443.45 227.268,441.617 229,436.5C 229.151,430.148 225.984,426.815 219.5,426.5 Z"/></g>
</svg>
