<?xml version="1.0" encoding="UTF-8"?>
<!DOCTYPE svg PUBLIC "-//W3C//DTD SVG 1.1//EN" "http://www.w3.org/Graphics/SVG/1.1/DTD/svg11.dtd">
<svg xmlns="http://www.w3.org/2000/svg" version="1.1" width="512px" height="512px" style="shape-rendering:geometricPrecision; text-rendering:geometricPrecision; image-rendering:optimizeQuality; fill-rule:evenodd; clip-rule:evenodd" xmlns:xlink="http://www.w3.org/1999/xlink">
<g><path style="opacity:0.938" fill="#fff" d="M 211.5,88.5 C 287.834,88.3333 364.167,88.5 440.5,89C 460.455,92.2885 472.621,103.788 477,123.5C 477.667,211.5 477.667,299.5 477,387.5C 472.494,407.673 459.994,419.173 439.5,422C 361.47,422.982 283.47,422.649 205.5,421C 188.307,416.473 177.974,405.473 174.5,388C 111.621,388.062 67.4539,359.562 42,302.5C 23.6375,244.779 36.4709,195.279 80.5,154C 107.956,132.293 139.289,121.96 174.5,123C 179.026,102.97 191.359,91.4699 211.5,88.5 Z M 212.5,105.5 C 288.167,105.333 363.834,105.5 439.5,106C 450.561,108.061 457.394,114.561 460,125.5C 460.667,212.167 460.667,298.833 460,385.5C 457.394,396.439 450.561,402.939 439.5,405C 363.833,405.667 288.167,405.667 212.5,405C 202.295,403.129 195.462,397.296 192,387.5C 191.333,299.5 191.333,211.5 192,123.5C 195.633,113.692 202.466,107.692 212.5,105.5 Z M 155.5,140.5 C 161.833,140.5 168.167,140.5 174.5,140.5C 174.5,156.167 174.5,171.833 174.5,187.5C 147.782,184.772 131.282,196.438 125,222.5C 122.504,240.671 129.004,254.504 144.5,264C 110.424,274.411 88.924,296.911 80,331.5C 53.2675,300.231 44.9341,264.565 55,224.5C 71.4053,175.919 104.905,147.919 155.5,140.5 Z M 164.5,203.5 C 167.516,204.059 170.516,204.725 173.5,205.5C 173.833,213.167 174.167,220.833 174.5,228.5C 174.483,236.568 173.816,244.401 172.5,252C 150.864,253.943 140.697,244.11 142,222.5C 145.696,211.58 153.196,205.247 164.5,203.5 Z M 156.5,278.5 C 162.5,278.5 168.5,278.5 174.5,278.5C 174.5,309.167 174.5,339.833 174.5,370.5C 145.871,371.889 120.038,364.222 97,347.5C 99.4602,309.539 119.294,286.539 156.5,278.5 Z"/></g>
<g><path style="opacity:0.913" fill="#fff" d="M 278.5,135.5 C 289.024,134.182 292.857,138.515 290,148.5C 277.5,162.333 265,176.167 252.5,190C 248.5,192 244.5,192 240.5,190C 234,183.5 227.5,177 221,170.5C 217.833,159 222,154.833 233.5,158C 237.682,162.349 242.015,166.515 246.5,170.5C 257.189,158.813 267.855,147.147 278.5,135.5 Z"/></g>
<g><path style="opacity:0.987" fill="#fff" d="M 313.5,143.5 C 350.835,143.333 388.168,143.5 425.5,144C 430.518,147.722 431.351,152.222 428,157.5C 427.25,158.126 426.416,158.626 425.5,159C 388.167,159.667 350.833,159.667 313.5,159C 308.221,153.836 308.221,148.669 313.5,143.5 Z"/></g>
<g><path style="opacity:0.978" fill="#fff" d="M 313.5,175.5 C 334.836,175.333 356.169,175.5 377.5,176C 382.518,179.722 383.351,184.222 380,189.5C 379.25,190.126 378.416,190.626 377.5,191C 356.167,191.667 334.833,191.667 313.5,191C 308.221,185.836 308.221,180.669 313.5,175.5 Z"/></g>
<g><path style="opacity:0.913" fill="#fff" d="M 278.5,223.5 C 289.024,222.182 292.857,226.515 290,236.5C 277.5,250.333 265,264.167 252.5,278C 248.5,280 244.5,280 240.5,278C 234,271.5 227.5,265 221,258.5C 217.833,247 222,242.833 233.5,246C 237.682,250.349 242.015,254.515 246.5,258.5C 257.189,246.813 267.855,235.147 278.5,223.5 Z"/></g>
<g><path style="opacity:0.987" fill="#fff" d="M 313.5,231.5 C 350.835,231.333 388.168,231.5 425.5,232C 430.518,235.722 431.351,240.222 428,245.5C 427.25,246.126 426.416,246.626 425.5,247C 388.167,247.667 350.833,247.667 313.5,247C 308.221,241.836 308.221,236.669 313.5,231.5 Z"/></g>
<g><path style="opacity:0.978" fill="#fff" d="M 313.5,263.5 C 334.836,263.333 356.169,263.5 377.5,264C 382.518,267.722 383.351,272.222 380,277.5C 379.25,278.126 378.416,278.626 377.5,279C 356.167,279.667 334.833,279.667 313.5,279C 308.221,273.836 308.221,268.669 313.5,263.5 Z"/></g>
<g><path style="opacity:0.912" fill="#fff" d="M 278.5,311.5 C 289.024,310.182 292.857,314.515 290,324.5C 277.5,338.333 265,352.167 252.5,366C 248.5,368 244.5,368 240.5,366C 234,359.5 227.5,353 221,346.5C 217.833,335 222,330.833 233.5,334C 237.682,338.349 242.015,342.515 246.5,346.5C 257.189,334.813 267.855,323.147 278.5,311.5 Z"/></g>
<g><path style="opacity:0.987" fill="#fff" d="M 313.5,319.5 C 350.835,319.333 388.168,319.5 425.5,320C 430.518,323.722 431.351,328.222 428,333.5C 427.25,334.126 426.416,334.626 425.5,335C 388.167,335.667 350.833,335.667 313.5,335C 308.221,329.836 308.221,324.669 313.5,319.5 Z"/></g>
<g><path style="opacity:0.978" fill="#fff" d="M 313.5,351.5 C 334.836,351.333 356.169,351.5 377.5,352C 382.518,355.722 383.351,360.222 380,365.5C 379.25,366.126 378.416,366.626 377.5,367C 356.167,367.667 334.833,367.667 313.5,367C 308.221,361.836 308.221,356.669 313.5,351.5 Z"/></g>
</svg>
