<?xml version="1.0" encoding="UTF-8"?>
<!DOCTYPE svg PUBLIC "-//W3C//DTD SVG 1.1//EN" "http://www.w3.org/Graphics/SVG/1.1/DTD/svg11.dtd">
<svg xmlns="http://www.w3.org/2000/svg" version="1.1" width="512px" height="512px" style="shape-rendering:geometricPrecision; text-rendering:geometricPrecision; image-rendering:optimizeQuality; fill-rule:evenodd; clip-rule:evenodd" xmlns:xlink="http://www.w3.org/1999/xlink">
<g><path style="opacity:0.996" fill="#9799FB" d="M 232.5,-0.5 C 247.833,-0.5 263.167,-0.5 278.5,-0.5C 362.756,9.30468 427.923,49.638 474,120.5C 495.029,155.419 507.529,193.086 511.5,233.5C 511.5,248.167 511.5,262.833 511.5,277.5C 498.958,377.769 446.958,449.269 355.5,492C 330.319,502.295 304.319,508.795 277.5,511.5C 262.833,511.5 248.167,511.5 233.5,511.5C 133.231,498.958 61.7312,446.958 19,355.5C 8.86392,330.621 2.36392,304.954 -0.5,278.5C -0.5,263.167 -0.5,247.833 -0.5,232.5C 11.9064,135.82 61.573,65.6535 148.5,22C 175.448,10.0983 203.448,2.59834 232.5,-0.5 Z"/></g>
<g><path style="opacity:1" fill="#fdfeff" d="M 250.5,105.5 C 257.093,104.815 263.093,106.315 268.5,110C 318.667,160.167 368.833,210.333 419,260.5C 424.29,270.178 422.79,278.678 414.5,286C 407.297,289.526 400.297,289.193 393.5,285C 347.96,239.127 302.127,193.627 256,148.5C 209.206,194.293 162.706,240.46 116.5,287C 100.539,293.024 91.2057,287.691 88.5,271C 88.9524,267.591 90.119,264.424 92,261.5C 142.167,211.333 192.333,161.167 242.5,111C 245.07,108.913 247.737,107.08 250.5,105.5 Z"/></g>
<g><path style="opacity:1" fill="#fefeff" d="M 368.5,280.5 C 368.5,322.167 368.5,363.833 368.5,405.5C 346.167,405.5 323.833,405.5 301.5,405.5C 301.831,377.328 301.498,349.328 300.5,321.5C 296.37,303.205 285.037,292.038 266.5,288C 241.107,284.27 223.607,294.103 214,317.5C 213.5,346.831 213.333,376.165 213.5,405.5C 190.833,405.5 168.167,405.5 145.5,405.5C 145.333,363.832 145.5,322.165 146,280.5C 182.637,242.196 219.637,204.196 257,166.5C 294.369,204.368 331.536,242.368 368.5,280.5 Z"/></g>
<g><path style="opacity:1" fill="#6cdfff" d="M 368.5,280.5 C 369.499,322.33 369.832,364.33 369.5,406.5C 346.5,406.5 323.5,406.5 300.5,406.5C 300.5,378.167 300.5,349.833 300.5,321.5C 301.498,349.328 301.831,377.328 301.5,405.5C 323.833,405.5 346.167,405.5 368.5,405.5C 368.5,363.833 368.5,322.167 368.5,280.5 Z"/></g>
</svg>
