<?xml version="1.0" encoding="UTF-8"?>
<!DOCTYPE svg PUBLIC "-//W3C//DTD SVG 1.1//EN" "http://www.w3.org/Graphics/SVG/1.1/DTD/svg11.dtd">
<svg xmlns="http://www.w3.org/2000/svg" version="1.1" width="512px" height="512px" style="shape-rendering:geometricPrecision; text-rendering:geometricPrecision; image-rendering:optimizeQuality; fill-rule:evenodd; clip-rule:evenodd" xmlns:xlink="http://www.w3.org/1999/xlink">
<g><path style="opacity:0.997" fill="#9799FB" d="M 245.5,25.5 C 339.176,25.5652 409.676,65.5652 457,145.5C 489.524,209.534 493.191,275.201 468,342.5C 436.153,414.678 381.987,460.511 305.5,480C 250.676,491.439 198.343,484.439 148.5,459C 143.254,457.494 137.921,457.161 132.5,458C 115.92,463.311 99.2535,468.311 82.5,473C 59.5861,474.294 45.4195,463.794 40,441.5C 39.1237,434.684 39.7903,428.017 42,421.5C 46.8631,409.244 51.5298,396.911 56,384.5C 56.6667,380.167 56.6667,375.833 56,371.5C 13.9041,290.836 15.5708,211.169 61,132.5C 104.984,67.0772 166.484,31.4105 245.5,25.5 Z"/></g>
<g><path style="opacity:1" fill="#fefefe" d="M 246.5,138.5 C 269.064,136.024 284.231,145.357 292,166.5C 295.029,189.623 285.529,204.789 263.5,212C 240.837,214.663 226.004,205.163 219,183.5C 216.455,161.244 225.622,146.244 246.5,138.5 Z"/></g>
<g><path style="opacity:1" fill="#fcfefe" d="M 248.5,234.5 C 265.5,232.354 276.667,239.354 282,255.5C 282.667,292.167 282.667,328.833 282,365.5C 277.567,382.921 266.401,390.421 248.5,388C 237.376,384.541 230.876,377.041 229,365.5C 228.333,328.833 228.333,292.167 229,255.5C 231.95,245.055 238.45,238.055 248.5,234.5 Z"/></g>
</svg>
