<?xml version="1.0" encoding="UTF-8"?>
<!DOCTYPE svg PUBLIC "-//W3C//DTD SVG 1.1//EN" "http://www.w3.org/Graphics/SVG/1.1/DTD/svg11.dtd">
<svg xmlns="http://www.w3.org/2000/svg" version="1.1" width="512px" height="512px" style="shape-rendering:geometricPrecision; text-rendering:geometricPrecision; image-rendering:optimizeQuality; fill-rule:evenodd; clip-rule:evenodd" xmlns:xlink="http://www.w3.org/1999/xlink">
<g><path style="opacity:0.956" fill="#fff" d="M 136.5,-0.5 C 234.5,-0.5 332.5,-0.5 430.5,-0.5C 449.367,4.87009 460.867,17.2034 465,36.5C 465.667,182.5 465.667,328.5 465,474.5C 460.867,493.797 449.367,506.13 430.5,511.5C 332.5,511.5 234.5,511.5 136.5,511.5C 118.84,506.673 107.673,495.339 103,477.5C 101.409,444.856 101.076,412.189 102,379.5C 104.642,369.836 110.475,367.336 119.5,372C 120.46,373.419 121.293,374.919 122,376.5C 122.036,409.539 122.702,442.539 124,475.5C 127.56,484.364 134.06,489.53 143.5,491C 237.167,491.667 330.833,491.667 424.5,491C 434.156,488.677 440.656,482.843 444,473.5C 444.667,328.167 444.667,182.833 444,37.5C 440.656,28.1568 434.156,22.3235 424.5,20C 330.5,19.3333 236.5,19.3333 142.5,20C 131.552,22.6144 125.052,29.4477 123,40.5C 122.667,71.8333 122.333,103.167 122,134.5C 118.678,141.235 113.511,143.069 106.5,140C 103.819,137.806 102.319,134.973 102,131.5C 101.076,98.8105 101.409,66.1438 103,33.5C 107.682,15.6521 118.849,4.31874 136.5,-0.5 Z"/></g>
<g><path style="opacity:0.985" fill="#fff" d="M 223.5,136.5 C 229.275,135.775 234.608,136.941 239.5,140C 278.966,175.13 318.132,210.63 357,246.5C 357.989,249.456 358.822,252.456 359.5,255.5C 358.822,258.544 357.989,261.544 357,264.5C 318.132,300.37 278.966,335.87 239.5,371C 228.444,377.324 219.611,375.158 213,364.5C 211.548,344.554 211.048,324.554 211.5,304.5C 160.12,304.982 108.787,304.482 57.5,303C 51.5082,300.341 47.6748,295.841 46,289.5C 45.3333,266.833 45.3333,244.167 46,221.5C 47.6748,215.159 51.5082,210.659 57.5,208C 108.787,206.518 160.12,206.018 211.5,206.5C 211.333,187.83 211.5,169.164 212,150.5C 213.257,143.621 217.09,138.955 223.5,136.5 Z"/></g>
</svg>
