<?xml version="1.0" encoding="UTF-8"?>
<svg version="1.1" xmlns="http://www.w3.org/2000/svg" width="400" height="82">
<path d="M0 0 C1.60220146 -0.02409439 1.60220146 -0.02409439 3.23677063 -0.04867554 C8.13114941 -0.0929467 13.02538986 -0.13419347 17.91992188 -0.15722656 C20.50497434 -0.17379429 23.08998084 -0.2010946 25.67480469 -0.23925781 C29.39176325 -0.29389451 33.10764566 -0.31588189 36.82495117 -0.33056641 C38.561054 -0.36457047 38.561054 -0.36457047 40.33222961 -0.39926147 C48.3425424 -0.37807562 48.3425424 -0.37807562 51.61962891 2.4987793 C52.07281494 3.38782959 52.52600098 4.27687988 52.99291992 5.19287109 C53.58121582 6.12401733 53.58121582 6.12401733 54.18139648 7.07397461 C55.21065775 8.96332881 56.23392607 10.85509935 57.24291992 12.75537109 C57.60643555 13.41472656 57.96995117 14.07408203 58.34448242 14.75341797 C60.20666102 18.236252 60.99291992 20.16341574 60.99291992 24.19287109 C58.74318545 24.24700909 56.4930761 24.28572601 54.24291992 24.31787109 C52.98995117 24.34107422 51.73698242 24.36427734 50.44604492 24.38818359 C45.39283474 24.10236854 45.39283474 24.10236854 42.99291992 22.19287109 C41.67291992 19.88287109 40.35291992 17.57287109 38.99291992 15.19287109 C27.77291992 15.19287109 16.55291992 15.19287109 4.99291992 15.19287109 C2.99229492 18.88474609 0.99166992 22.57662109 -1.06958008 26.38037109 C-1.70516846 27.53561279 -2.34075684 28.69085449 -2.99560547 29.88110352 C-3.48536865 30.8025415 -3.97513184 31.72397949 -4.47973633 32.67333984 C-4.98770752 33.61072998 -5.49567871 34.54812012 -6.01904297 35.51391602 C-7.47848733 39.47104054 -6.59781417 41.80407797 -4.99145508 45.58056641 C-4.38043945 46.7885791 -4.38043945 46.7885791 -3.75708008 48.02099609 C-3.31364258 48.90271484 -2.87020508 49.78443359 -2.41333008 50.69287109 C-1.94926758 51.60037109 -1.48520508 52.50787109 -1.00708008 53.44287109 C-0.54301758 54.36583984 -0.07895508 55.28880859 0.39916992 56.23974609 C2.30325941 60.48354158 2.30325941 60.48354158 4.99291992 64.19287109 C7.58445099 64.35283275 10.15244012 64.45225806 12.74682617 64.50927734 C13.90999611 64.54044899 13.90999611 64.54044899 15.09666443 64.57225037 C17.582823 64.63782911 20.06909037 64.69666909 22.55541992 64.75537109 C24.23707197 64.79854843 25.91871286 64.84216245 27.6003418 64.88623047 C31.73108863 64.99351888 35.86194528 65.09476242 39.99291992 65.19287109 C40.29633301 64.26007324 40.59974609 63.32727539 40.91235352 62.36621094 C41.93916301 59.35074105 43.16467212 56.64787998 44.61791992 53.81787109 C45.28694336 52.50689453 45.28694336 52.50689453 45.96948242 51.16943359 C46.3072168 50.51716797 46.64495117 49.86490234 46.99291992 49.19287109 C44.40846219 49.08468449 41.8285464 49.00549872 39.24291992 48.94287109 C38.14850586 48.89259766 38.14850586 48.89259766 37.03198242 48.84130859 C33.4963909 48.77702511 31.45381805 48.84570108 28.58666992 51.00537109 C26.69608707 53.60028873 25.31982148 56.27368766 23.99291992 59.19287109 C22.67291992 59.19287109 21.35291992 59.19287109 19.99291992 59.19287109 C19.71319336 58.52900391 19.4334668 57.86513672 19.14526367 57.18115234 C15.76798515 49.74245205 12.45543982 46.18676296 5.05541992 42.88037109 C4.37479492 42.65349609 3.69416992 42.42662109 2.99291992 42.19287109 C2.99291992 40.87287109 2.99291992 39.55287109 2.99291992 38.19287109 C3.64518555 37.93634766 4.29745117 37.67982422 4.96948242 37.41552734 C11.9162201 34.37248739 15.55910646 30.95913082 18.99291992 24.19287109 C19.48791992 22.70787109 19.48791992 22.70787109 19.99291992 21.19287109 C21.31291992 21.19287109 22.63291992 21.19287109 23.99291992 21.19287109 C24.3306543 21.83095703 24.66838867 22.46904297 25.01635742 23.12646484 C25.46237305 23.95275391 25.90838867 24.77904297 26.36791992 25.63037109 C26.8087793 26.45408203 27.24963867 27.27779297 27.70385742 28.12646484 C28.82710551 30.32753687 28.82710551 30.32753687 30.99291992 31.19287109 C33.58195826 31.31323948 36.14878132 31.37845205 38.73901367 31.40380859 C40.31389395 31.43187218 41.88876361 31.46053661 43.46362305 31.48974609 C45.95003011 31.53105099 48.43623794 31.56793264 50.92285156 31.59423828 C53.32032298 31.62180908 55.71688956 31.66767289 58.11401367 31.71630859 C58.85783798 31.71956146 59.60166229 31.72281433 60.36802673 31.72616577 C65.49112344 31.84845135 65.49112344 31.84845135 67.9296875 33.5222168 C69.76584437 36.40736524 69.89510797 38.80089249 69.99291992 42.19287109 C69.04098621 44.97522054 68.07373718 47.29631093 66.74291992 49.88037109 C66.38955566 50.59717041 66.03619141 51.31396973 65.67211914 52.05249023 C61.75948177 59.88027844 57.56240618 67.57094058 53.31323242 75.22021484 C52.91378418 75.93943115 52.51433594 76.65864746 52.1027832 77.3996582 C50.73191939 79.61457125 49.65836133 80.97112882 47.14753723 81.80780029 C44.89682108 82.21004577 42.80497368 82.33371817 40.51904297 82.35400391 C39.20198616 82.36841522 39.20198616 82.36841522 37.85832214 82.38311768 C36.44574883 82.38949249 36.44574883 82.38949249 35.00463867 82.39599609 C34.02807816 82.40169617 33.05151764 82.40739624 32.04536438 82.41326904 C29.98012369 82.4227076 27.91486803 82.42924848 25.84960938 82.43310547 C22.70244849 82.44280321 19.55594303 82.4738345 16.40893555 82.50537109 C14.39917379 82.51190244 12.38940737 82.5171524 10.37963867 82.52099609 C9.44399582 82.5333429 8.50835297 82.5456897 7.5443573 82.55841064 C1.92921602 82.53942281 -2.08666683 81.98736229 -7.00708008 79.19287109 C-8.56445312 77.45043945 -8.56445312 77.45043945 -9.51879883 75.53271484 C-9.88207275 74.82614746 -10.24534668 74.11958008 -10.61962891 73.39160156 C-10.97436279 72.64539551 -11.32909668 71.89918945 -11.69458008 71.13037109 C-12.27018677 69.9839917 -12.27018677 69.9839917 -12.85742188 68.81445312 C-15.21489574 64.05514839 -17.34399233 59.23837395 -19.16723633 54.24755859 C-20.00586962 52.1958325 -21.03162444 50.53317471 -22.25708008 48.69287109 C-24.67664229 43.85374667 -25.13666583 40.49913501 -24.00708008 35.19287109 C-21.75130689 29.62659835 -18.92122445 24.43696975 -16.00708008 19.19287109 C-15.09886621 17.52786732 -14.19133133 15.86249303 -13.28442383 14.19677734 C-5.54699539 0.07548702 -5.54699539 0.07548702 0 0 Z " fill="#51AEDC" transform="translate(24.007080078125,-0.19287109375)"/>
<path d="M0 0 C1.32 0 2.64 0 4 0 C4.33773437 0.63808594 4.67546875 1.27617187 5.0234375 1.93359375 C5.46945313 2.75988281 5.91546875 3.58617187 6.375 4.4375 C6.81585938 5.26121094 7.25671875 6.08492187 7.7109375 6.93359375 C8.83418559 9.13466578 8.83418559 9.13466578 11 10 C13.58903834 10.12036839 16.1558614 10.18558095 18.74609375 10.2109375 C20.32097402 10.23900109 21.89584369 10.26766552 23.47070312 10.296875 C25.95711019 10.33817989 28.44331802 10.37506155 30.92993164 10.40136719 C33.32740305 10.42893799 35.72396964 10.47480179 38.12109375 10.5234375 C38.86491806 10.52669037 39.60874237 10.52994324 40.37510681 10.53329468 C45.49820352 10.65558026 45.49820352 10.65558026 47.93676758 12.3293457 C49.77292445 15.21449415 49.90218805 17.6080214 50 21 C49.04806629 23.78234945 48.08081726 26.10343983 46.75 28.6875 C46.39663574 29.40429932 46.04327148 30.12109863 45.67919922 30.85961914 C41.76656185 38.68740734 37.56948626 46.37806948 33.3203125 54.02734375 C32.92086426 54.74656006 32.52141602 55.46577637 32.10986328 56.20678711 C30.63404663 58.5912731 29.58699042 59.8261564 26.86328125 60.6328125 C18.35807149 61.72352153 8.48189065 61.62112899 1.48046875 56.25390625 C0.99191406 55.84011719 0.50335938 55.42632812 0 55 C-0.99 54.34 -1.98 53.68 -3 53 C-2.41321669 49.47930015 -1.64350079 47.28700157 0 44 C6.6 44 13.2 44 20 44 C20.66 42.02 21.32 40.04 22 38 C22.84040805 36.19184935 23.71417058 34.39872044 24.625 32.625 C25.29402344 31.31402344 25.29402344 31.31402344 25.9765625 29.9765625 C26.31429687 29.32429688 26.65203125 28.67203125 27 28 C24.41554227 27.8918134 21.83562648 27.81262763 19.25 27.75 C18.15558594 27.69972656 18.15558594 27.69972656 17.0390625 27.6484375 C13.50347098 27.58415402 11.46089813 27.65282998 8.59375 29.8125 C6.70316715 32.40741764 5.32690156 35.08081657 4 38 C2.68 38 1.36 38 0 38 C-0.27972656 37.33613281 -0.55945313 36.67226563 -0.84765625 35.98828125 C-4.22493478 28.54958096 -7.5374801 24.99389187 -14.9375 21.6875 C-15.618125 21.460625 -16.29875 21.23375 -17 21 C-17 19.68 -17 18.36 -17 17 C-16.34773438 16.74347656 -15.69546875 16.48695312 -15.0234375 16.22265625 C-8.07669982 13.17961629 -4.43381346 9.76625973 -1 3 C-0.67 2.01 -0.34 1.02 0 0 Z " fill="#4FB4DC" transform="translate(44,21)"/>
<path d="M0 0 C1.49080078 0.02707031 1.49080078 0.02707031 3.01171875 0.0546875 C3.77097656 0.07789063 4.53023438 0.10109375 5.3125 0.125 C5.3125 3.095 5.3125 6.065 5.3125 9.125 C4.36375 9.3725 3.415 9.62 2.4375 9.875 C-1.12867911 10.90008516 -1.12867911 10.90008516 -2.6875 15.125 C3.5825 15.125 9.8525 15.125 16.3125 15.125 C19.6125 23.045 22.9125 30.965 26.3125 39.125 C29.2825 31.205 32.2525 23.285 35.3125 15.125 C38.2825 15.125 41.2525 15.125 44.3125 15.125 C44.59709534 21.16526173 43.82440081 25.62410122 41.6796875 31.24609375 C41.40536896 31.99029068 41.13105042 32.73448761 40.84841919 33.50123596 C40.26794311 35.06578231 39.68099384 36.62794084 39.08789062 38.18774414 C38.19359929 40.54641328 37.32598369 42.91367529 36.4609375 45.28320312 C29.46106351 64.14885661 29.46106351 64.14885661 22.4375 69.1875 C18.51299762 70.36485071 15.39776537 70.33630683 11.3125 70.125 C11.3125 67.155 11.3125 64.185 11.3125 61.125 C13.0703125 60.50651042 14.828125 59.88802083 16.5859375 59.26953125 C19.17405301 57.55388002 19.57280525 56.1303899 20.3125 53.125 C19.49828944 50.4278101 18.63083551 48.16147581 17.4453125 45.63671875 C16.97495071 44.5819207 16.97495071 44.5819207 16.49508667 43.5058136 C15.49218461 41.26693894 14.46535994 39.0400104 13.4375 36.8125 C12.7522989 35.29434423 12.06868584 33.77547064 11.38671875 32.25585938 C9.71360904 28.53700009 8.01896378 24.82866545 6.3125 21.125 C5.9825 22.445 5.6525 23.765 5.3125 25.125 C2.6725 25.125 0.0325 25.125 -2.6875 25.125 C-2.67964478 26.43488892 -2.67964478 26.43488892 -2.67163086 27.77124023 C-2.65462249 31.00089273 -2.64206631 34.23052245 -2.63256836 37.46020508 C-2.6275292 38.85995228 -2.62069784 40.2596942 -2.61206055 41.65942383 C-2.5999768 43.66745777 -2.59480193 45.67552957 -2.58984375 47.68359375 C-2.58198853 49.49815063 -2.58198853 49.49815063 -2.57397461 51.34936523 C-2.6875 54.125 -2.6875 54.125 -3.6875 55.125 C-6.9875 55.125 -10.2875 55.125 -13.6875 55.125 C-13.6875 45.225 -13.6875 35.325 -13.6875 25.125 C-15.6675 25.125 -17.6475 25.125 -19.6875 25.125 C-19.71439216 23.64593108 -19.73384621 22.16672517 -19.75 20.6875 C-19.76160156 19.86378906 -19.77320313 19.04007813 -19.78515625 18.19140625 C-19.6875 16.125 -19.6875 16.125 -18.6875 15.125 C-17.02132885 15.08436168 -15.35361905 15.082279 -13.6875 15.125 C-13.605 14.09375 -13.5225 13.0625 -13.4375 12 C-12.61702305 7.76086911 -11.34642018 5.48775199 -8.6875 2.125 C-5.26655758 -0.15562828 -4.00562778 -0.09425007 0 0 Z " fill="#181A2F" transform="translate(355.6875,11.875)"/>
<path d="M0 0 C4.00746715 2.41818103 6.78839307 4.88549912 9.25 8.875 C9.375 11.0625 9.375 11.0625 8.25 12.875 C5.91772714 14.70299764 4.32628351 15.875 1.3125 15.875 C-1.77819591 14.37648077 -4.1445449 12.0924086 -6.75 9.875 C-12.33240452 8.01419849 -17.80131969 7.93674652 -23.125 10.5 C-27.92973274 14.84713915 -30.51382525 19.08813791 -31.0625 25.5625 C-30.98321662 30.34593051 -29.51233201 33.99396655 -26.75 37.875 C-22.20312574 41.99890921 -17.73214164 42.9585203 -11.75 42.875 C-6.17175099 41.94529183 -3.40070262 40.16994426 0.25 35.875 C0.745 34.885 0.745 34.885 1.25 33.875 C-4.03 33.875 -9.31 33.875 -14.75 33.875 C-14.75 30.575 -14.75 27.275 -14.75 23.875 C-5.51 23.875 3.73 23.875 13.25 23.875 C13.25 33.445 13.25 43.015 13.25 52.875 C9.95 52.875 6.65 52.875 3.25 52.875 C3.25 51.885 3.25 50.895 3.25 49.875 C2.53650391 50.308125 2.53650391 50.308125 1.80859375 50.75 C-6.1987161 54.99697097 -14.92057042 55.18333147 -23.69140625 53.21484375 C-31.24373297 50.55135143 -36.40230627 45.79652743 -40.125 38.75 C-43.73154869 30.70462215 -43.59887319 22.68931748 -40.84375 14.3984375 C-37.75979006 7.28330135 -32.97124405 1.82950618 -25.8203125 -1.30859375 C-17.48039978 -3.52620413 -7.92175568 -3.65254603 0 0 Z " fill="#191A2E" transform="translate(153.75,14.125)"/>
<path d="M0 0 C1.47906892 -0.02689216 2.95827483 -0.04634621 4.4375 -0.0625 C5.26121094 -0.07410156 6.08492188 -0.08570313 6.93359375 -0.09765625 C9 0 9 0 10 1 C10.09353163 2.68801985 10.11744791 4.37995207 10.11352539 6.07055664 C10.11344986 7.15160172 10.11337433 8.23264679 10.11329651 9.34645081 C10.10813522 10.5224736 10.10297394 11.6984964 10.09765625 12.91015625 C10.0962413 14.10732773 10.09482635 15.30449921 10.09336853 16.53794861 C10.08774979 20.37949066 10.07519411 24.22097543 10.0625 28.0625 C10.05748741 30.65950437 10.05292409 33.25650965 10.04882812 35.85351562 C10.03777427 42.23569679 10.02101792 48.6178443 10 55 C5.33333333 55 0.66666667 55 -4 55 C-4.99 55.495 -4.99 55.495 -6 56 C-13.33214824 56.68809391 -20.02813363 56.71098507 -26 52 C-30.36351348 47.49140807 -33.00727415 42.15353955 -32.99609375 35.76953125 C-32.4445501 28.76375335 -30.01909926 23.01909926 -25 18 C-19.8175817 14.91067491 -15.09366078 13.21008101 -9 14 C-6.54542661 14.8439103 -4.34019531 15.85378189 -2 17 C-1.93941406 15.94039062 -1.87882812 14.88078125 -1.81640625 13.7890625 C-1.73199873 12.40102779 -1.64735083 11.01300768 -1.5625 9.625 C-1.52318359 8.92632812 -1.48386719 8.22765625 -1.44335938 7.5078125 C-1.11328125 2.2265625 -1.11328125 2.2265625 0 0 Z M-19 27 C-21.39398482 29.87278179 -21.96024433 31.72667978 -22.5 35.4375 C-21.83624442 40.16675851 -20.34318209 41.65681791 -17 45 C-13.79826746 46.60086627 -10.47422941 46.49917089 -7 46 C-4.1899654 44.20636089 -2.49059532 42.98119065 -1 40 C-0.45600715 35.460781 -0.37710539 32.0455731 -2.75 28.0625 C-8.222171 23.04634325 -12.64230739 23.07716839 -19 27 Z " fill="#191A2F" transform="translate(309,12)"/>
<path d="M0 0 C0.66 -0.66 1.32 -1.32 2 -2 C4.1640625 -2.1953125 4.1640625 -2.1953125 6.625 -2.125 C7.85089844 -2.09792969 7.85089844 -2.09792969 9.1015625 -2.0703125 C10.04128906 -2.03550781 10.04128906 -2.03550781 11 -2 C12.63945963 1.27891925 12.12030178 4.90613534 12.09765625 8.5078125 C12.0962413 9.34843231 12.09482635 10.18905212 12.09336853 11.05514526 C12.08776237 13.74513275 12.07520886 16.43503759 12.0625 19.125 C12.05748579 20.94661338 12.05292275 22.76822807 12.04882812 24.58984375 C12.03779094 29.05992777 12.0205222 33.52994986 12 38 C8.37 38 4.74 38 1 38 C1 37.34 1 36.68 1 36 C0.2575 36.495 -0.485 36.99 -1.25 37.5 C-6.60695016 40.15938856 -13.52511448 40.1142296 -19.15625 38.30859375 C-24.37225341 35.5747674 -27.8481065 31.46834322 -30.3125 26.1875 C-31.81600937 19.21668382 -31.8144016 12.23483584 -28 6 C-20.39356756 -2.52995072 -10.47493539 -5.88913418 0 0 Z M-18 11 C-20.66539031 14.99808546 -20.84149704 18.29751653 -20 23 C-17.72872666 26.02409364 -17.72872666 26.02409364 -15 28 C-14.67 28.33 -14.34 28.66 -14 29 C-8.87804863 29.6066518 -8.87804863 29.6066518 -4.171875 27.953125 C-0.63360857 25.03319639 0.87425836 23.30771309 1.3125 18.75 C0.9413702 14.29644235 -0.10314274 12.3666179 -3 9 C-9.0132182 5.69272999 -12.74398946 7.00086155 -18 11 Z " fill="#191930" transform="translate(239,29)"/>
<path d="M0 0 C1.60220146 -0.02409439 1.60220146 -0.02409439 3.23677063 -0.04867554 C8.13114941 -0.0929467 13.02538986 -0.13419347 17.91992188 -0.15722656 C20.50497434 -0.17379429 23.08998084 -0.2010946 25.67480469 -0.23925781 C29.39176325 -0.29389451 33.10764566 -0.31588189 36.82495117 -0.33056641 C38.561054 -0.36457047 38.561054 -0.36457047 40.33222961 -0.39926147 C48.3425424 -0.37807562 48.3425424 -0.37807562 51.61962891 2.4987793 C52.07281494 3.38782959 52.52600098 4.27687988 52.99291992 5.19287109 C53.58121582 6.12401733 53.58121582 6.12401733 54.18139648 7.07397461 C55.21065775 8.96332881 56.23392607 10.85509935 57.24291992 12.75537109 C57.60643555 13.41472656 57.96995117 14.07408203 58.34448242 14.75341797 C60.20666102 18.236252 60.99291992 20.16341574 60.99291992 24.19287109 C58.74318545 24.24700909 56.4930761 24.28572601 54.24291992 24.31787109 C52.98995117 24.34107422 51.73698242 24.36427734 50.44604492 24.38818359 C45.39283474 24.10236854 45.39283474 24.10236854 42.99291992 22.19287109 C41.55900809 19.91211731 40.29826753 17.55134316 38.99291992 15.19287109 C33.46112965 15.11824646 27.92963787 15.06404611 22.39746094 15.02807617 C20.51882822 15.01306777 18.64023008 14.99265457 16.76171875 14.96655273 C14.04833399 14.92981724 11.33541582 14.91306503 8.62182617 14.89990234 C7.79332657 14.88441849 6.96482697 14.86893463 6.11122131 14.85298157 C0.90304716 14.85150667 -3.30808558 15.69360619 -8.18153381 17.54692078 C-10.00708008 18.19287109 -10.00708008 18.19287109 -12.00708008 18.19287109 C-13.16204202 14.76606093 -13.13238277 13.46867701 -11.60864258 10.11474609 C-10.95637695 9.06802734 -10.30411133 8.02130859 -9.63208008 6.94287109 C-8.66141602 5.35732422 -8.66141602 5.35732422 -7.67114258 3.73974609 C-5.15274433 -0.1147038 -4.56064957 0.0620642 0 0 Z " fill="#56AADB" transform="translate(24.007080078125,-0.19287109375)"/>
<path d="M0 0 C1.23556641 0.01740234 1.23556641 0.01740234 2.49609375 0.03515625 C3.32238281 0.04417969 4.14867187 0.05320312 5 0.0625 C5.63808594 0.07410156 6.27617187 0.08570312 6.93359375 0.09765625 C6.94817627 0.82879639 6.96275879 1.55993652 6.9777832 2.31323242 C7.05242285 5.63772996 7.14903176 8.96124092 7.24609375 12.28515625 C7.26865234 13.43564453 7.29121094 14.58613281 7.31445312 15.77148438 C7.34990234 16.88330078 7.38535156 17.99511719 7.421875 19.140625 C7.44805908 20.1618042 7.47424316 21.1829834 7.5012207 22.23510742 C7.99484323 25.50316167 8.98829858 27.44495385 10.93359375 30.09765625 C12.85889324 30.84367187 12.85889324 30.84367187 14.93359375 30.66015625 C15.95453125 30.66208984 15.95453125 30.66208984 16.99609375 30.6640625 C19.77825882 29.85072795 20.4470954 28.55488697 21.93359375 26.09765625 C22.41877268 23.31580572 22.41877268 23.31580572 22.41015625 20.2734375 C22.44109375 19.16291016 22.47203125 18.05238281 22.50390625 16.90820312 C22.52195313 15.75384766 22.54 14.59949219 22.55859375 13.41015625 C22.60935468 11.11449315 22.66383231 8.81890815 22.72265625 6.5234375 C22.74900146 4.99843628 22.74900146 4.99843628 22.77587891 3.44262695 C22.93359375 1.09765625 22.93359375 1.09765625 23.93359375 0.09765625 C25.43097499 -0.00024945 26.93302267 -0.03209239 28.43359375 -0.02734375 C29.24828125 -0.02992187 30.06296875 -0.0325 30.90234375 -0.03515625 C32.93359375 0.09765625 32.93359375 0.09765625 33.93359375 1.09765625 C34.02224583 3.98199445 34.04880671 6.84227783 34.03125 9.7265625 C34.02983505 10.5907933 34.0284201 11.45502411 34.02696228 12.34544373 C34.02134614 15.11704917 34.00879094 17.88857505 33.99609375 20.66015625 C33.99108083 22.53450405 33.98651756 24.4088531 33.98242188 26.28320312 C33.97137147 30.88805169 33.95409605 35.49284046 33.93359375 40.09765625 C33.01835937 40.08605469 32.103125 40.07445312 31.16015625 40.0625 C29.97164062 40.05347656 28.783125 40.04445312 27.55859375 40.03515625 C26.37523437 40.02355469 25.191875 40.01195312 23.97265625 40 C21.01437854 39.88299032 21.01437854 39.88299032 18.93359375 41.09765625 C16.99999789 41.24617469 15.06017278 41.31896458 13.12109375 41.34765625 C12.08339844 41.3734375 11.04570312 41.39921875 9.9765625 41.42578125 C5.29896867 40.92139373 2.78246794 39.04084979 -0.31640625 35.59765625 C-3.17408315 31.51526068 -3.19461351 28.36646028 -3.19921875 23.49609375 C-3.20050781 22.201875 -3.20179688 20.90765625 -3.203125 19.57421875 C-3.20103027 18.90165039 -3.19893555 18.22908203 -3.19677734 17.53613281 C-3.19140775 15.4732331 -3.19673985 13.41054936 -3.203125 11.34765625 C-3.20183594 10.05601563 -3.20054687 8.764375 -3.19921875 7.43359375 C-3.19809082 6.2429834 -3.19696289 5.05237305 -3.19580078 3.82568359 C-3.02111475 0.1427748 -3.02111475 0.1427748 0 0 Z " fill="#191A32" transform="translate(172.06640625,26.90234375)"/>
<path d="M0 0 C2.97 0 5.94 0 9 0 C9.66 0.66 10.32 1.32 11 2 C11.804375 1.505 11.804375 1.505 12.625 1 C15.5391061 -0.22699204 17.86867708 -0.14233286 21 0 C21 3.3 21 6.6 21 10 C18.68880208 11.00911458 16.37760417 12.01822917 14.06640625 13.02734375 C12.05589883 13.83122323 12.05589883 13.83122323 11 15 C10.84213692 16.85174706 10.74892644 18.7090911 10.68359375 20.56640625 C10.64169922 21.69111328 10.59980469 22.81582031 10.55664062 23.97460938 C10.51732422 25.15861328 10.47800781 26.34261719 10.4375 27.5625 C10.39431641 28.75037109 10.35113281 29.93824219 10.30664062 31.16210938 C10.20016454 34.10794784 10.09815159 37.0538743 10 40 C6.7 40 3.4 40 0 40 C0 26.8 0 13.6 0 0 Z " fill="#1A1B32" transform="translate(257,27)"/>
<path d="M0 0 C1.47906892 -0.02689216 2.95827483 -0.04634621 4.4375 -0.0625 C5.26121094 -0.07410156 6.08492188 -0.08570312 6.93359375 -0.09765625 C9 0 9 0 10 1 C10.08865208 3.8843382 10.11521296 6.74462158 10.09765625 9.62890625 C10.0962413 10.49313705 10.09482635 11.35736786 10.09336853 12.24778748 C10.08775239 15.01939292 10.07519719 17.7909188 10.0625 20.5625 C10.05748708 22.4368478 10.05292381 24.31119685 10.04882812 26.18554688 C10.03777772 30.79039544 10.0205023 35.39518421 10 40 C8.35425434 40.02688151 6.70838587 40.04634123 5.0625 40.0625 C4.14597656 40.07410156 3.22945313 40.08570313 2.28515625 40.09765625 C0 40 0 40 -1 39 C-1.10102113 36.28443773 -1.13970277 33.59485462 -1.1328125 30.87890625 C-1.13376923 30.06381088 -1.13472595 29.24871552 -1.13571167 28.40892029 C-1.13639353 26.68138553 -1.13453884 24.95384823 -1.13037109 23.22631836 C-1.12502975 20.57725272 -1.13031232 17.92835716 -1.13671875 15.27929688 C-1.13605783 13.60416629 -1.13477639 11.92903581 -1.1328125 10.25390625 C-1.13483673 9.45803604 -1.13686096 8.66216583 -1.13894653 7.84217834 C-1.11495544 2.22991088 -1.11495544 2.22991088 0 0 Z " fill="#19192E" transform="translate(324,27)"/>
<path d="M0 0 C-1.28680869 2.6274838 -2.57917678 5.25196683 -3.875 7.875 C-4.23980469 8.62136719 -4.60460937 9.36773437 -4.98046875 10.13671875 C-5.33496094 10.85214844 -5.68945312 11.56757813 -6.0546875 12.3046875 C-6.37937012 12.96452637 -6.70405273 13.62436523 -7.03857422 14.30419922 C-8 16 -8 16 -10 18 C-11.98 14.535 -11.98 14.535 -14 11 C-16.9630247 11.63493386 -19.51579355 12.23701478 -22 14 C-22.495 15.175625 -22.99 16.35125 -23.5 17.5625 C-23.995 18.696875 -24.49 19.83125 -25 21 C-27.09375 21.71484375 -27.09375 21.71484375 -29 22 C-27.52118275 18.87483453 -26.04188678 15.7498959 -24.5625 12.625 C-24.14162109 11.73554688 -23.72074219 10.84609375 -23.28710938 9.9296875 C-22.88427734 9.07890625 -22.48144531 8.228125 -22.06640625 7.3515625 C-21.5086853 6.17327881 -21.5086853 6.17327881 -20.93969727 4.97119141 C-20.30575142 3.641371 -19.65883376 2.31766752 -19 1 C-18.34 1 -17.68 1 -17 1 C-17 1.99 -17 2.98 -17 4 C-16.27554687 3.71125 -15.55109375 3.4225 -14.8046875 3.125 C-13.35449219 2.568125 -13.35449219 2.568125 -11.875 2 C-10.92367188 1.62875 -9.97234375 1.2575 -8.9921875 0.875 C-5.84566704 -0.04513131 -3.25974596 -0.15476539 0 0 Z " fill="#2393CF" transform="translate(29,14)"/>
<path d="M0 0 C4.95 0 9.9 0 15 0 C14.67 1.32 14.34 2.64 14 4 C13.65939189 5.66519519 13.32441604 7.33157466 13 9 C13.63808594 9.34933594 14.27617188 9.69867188 14.93359375 10.05859375 C15.75988281 10.51363281 16.58617188 10.96867187 17.4375 11.4375 C18.26121094 11.88996094 19.08492187 12.34242187 19.93359375 12.80859375 C22 14 22 14 23 15 C25.69235776 15.23678716 28.36498156 15.42198025 31.0625 15.5625 C32.20041992 15.62727539 32.20041992 15.62727539 33.36132812 15.69335938 C35.24065438 15.79973633 37.12030244 15.90039934 39 16 C39 16.33 39 16.66 39 17 C27.78 17 16.56 17 5 17 C5 16.67 5 16.34 5 16 C7.64 16 10.28 16 13 16 C13 15.34 13 14.68 13 14 C12.443125 13.773125 11.88625 13.54625 11.3125 13.3125 C8.34746553 11.6296426 6.34646311 9.46378626 4 7 C3.236875 6.29875 2.47375 5.5975 1.6875 4.875 C0 3 0 3 0 0 Z " fill="#188AC8" transform="translate(29,65)"/>
<path d="M0 0 C0.66 0.33 1.32 0.66 2 1 C1.875 2.875 1.875 2.875 1 5 C-2 6.125 -2 6.125 -5 7 C-5.33 7.66 -5.66 8.32 -6 9 C-4.35 8.67 -2.7 8.34 -1 8 C-0.62488281 8.56589844 -0.24976563 9.13179687 0.13671875 9.71484375 C3.16646371 14.2475535 3.16646371 14.2475535 7.625 17.125 C10.24901684 16.98689385 11.78880759 16.39223226 14 15 C14.66 15.66 15.32 16.32 16 17 C14.35 19.97 12.7 22.94 11 26 C9.68 26 8.36 26 7 26 C6.72027344 25.33613281 6.44054687 24.67226563 6.15234375 23.98828125 C2.77506522 16.54958096 -0.5374801 12.99389187 -7.9375 9.6875 C-8.618125 9.460625 -9.29875 9.23375 -10 9 C-10 7.68 -10 6.36 -10 5 C-8.38007835 4.13624104 -6.75388139 3.28424146 -5.125 2.4375 C-4.22007813 1.96183594 -3.31515625 1.48617187 -2.3828125 0.99609375 C-1.20332031 0.50302734 -1.20332031 0.50302734 0 0 Z " fill="#64ABD8" transform="translate(37,33)"/>
<path d="M0 0 C0.70125 -0.01675781 1.4025 -0.03351562 2.125 -0.05078125 C2.74375 0.06910156 3.3625 0.18898438 4 0.3125 C6.31361802 3.78292703 6.51020728 5.23084173 6 9.3125 C4.4375 11.25 4.4375 11.25 2 12.3125 C-1.625 12.25 -1.625 12.25 -5 11.3125 C-6.5 9.5625 -6.5 9.5625 -7 7.3125 C-6.52120155 2.28511629 -5.19679361 0.02865879 0 0 Z " fill="#19182D" transform="translate(329,11.6875)"/>
<path d="M0 0 C0.66 1.32 1.32 2.64 2 4 C-5.71779141 10.25766871 -5.71779141 10.25766871 -11 10 C-12.32 10 -13.64 10 -15 10 C-15 10.66 -15 11.32 -15 12 C-16.32 12.33 -17.64 12.66 -19 13 C-19 11.35 -19 9.7 -19 8 C-19.99 8.33 -20.98 8.66 -22 9 C-22 8.01 -22 7.02 -22 6 C-15.4 6 -8.8 6 -2 6 C-1.34 4.02 -0.68 2.04 0 0 Z " fill="#68A0D0" transform="translate(66,59)"/>
<path d="M0 0 C4.95 0 9.9 0 15 0 C14 4 14 4 11 6 C8.80859375 6.046875 8.80859375 6.046875 6.4375 5.75 C5.65246094 5.66234375 4.86742187 5.5746875 4.05859375 5.484375 C2 5 2 5 0 3 C0 2.01 0 1.02 0 0 Z " fill="#4392BD" transform="translate(29,65)"/>
<path d="M0 0 C-0.99 1.98 -1.98 3.96 -3 6 C-3.66 6 -4.32 6 -5 6 C-5.33 6.66 -5.66 7.32 -6 8 C-6.99 7.34 -7.98 6.68 -9 6 C-12.01349195 6.3355782 -12.01349195 6.3355782 -15 7 C-15.99 7 -16.98 7 -18 7 C-18 6.34 -18 5.68 -18 5 C-17.01 5 -16.02 5 -15 5 C-15 4.34 -15 3.68 -15 3 C-9.89665983 1.094753 -5.53657294 -0.42589023 0 0 Z " fill="#0E8CCE" transform="translate(29,14)"/>
<path d="M0 0 C0.99 0.33 1.98 0.66 3 1 C4.32854177 6.9180497 3.66464729 9.77729131 1 15 C0.34 15 -0.32 15 -1 15 C-1.10957031 14.30132812 -1.21914062 13.60265625 -1.33203125 12.8828125 C-1.49058594 11.97273438 -1.64914063 11.06265625 -1.8125 10.125 C-1.96332031 9.22007813 -2.11414063 8.31515625 -2.26953125 7.3828125 C-2.83051301 4.65587522 -2.83051301 4.65587522 -6 3 C-4.35 3 -2.7 3 -1 3 C-0.67 2.01 -0.34 1.02 0 0 Z " fill="#35C7E7" transform="translate(90,34)"/>
<path d="M0 0 C0.99 0 1.98 0 3 0 C3.66 1.98 4.32 3.96 5 6 C6.299375 5.6596875 6.299375 5.6596875 7.625 5.3125 C11.68338409 4.9367237 13.55166676 5.94742069 17 8 C17.66 6.35 18.32 4.7 19 3 C21 5 21 5 21 9 C18.75026553 9.054138 16.50015617 9.09285491 14.25 9.125 C12.99703125 9.14820313 11.7440625 9.17140625 10.453125 9.1953125 C7.23871885 9.0135022 5.60350546 8.80526086 3 7 C0 2.71428571 0 2.71428571 0 0 Z " fill="#468EBF" transform="translate(64,15)"/>
<path d="M0 0 C0.66 0.99 1.32 1.98 2 3 C1.00200236 6.99199058 -0.55799862 8.82006579 -4 11 C-3.01 12.98 -2.02 14.96 -1 17 C-2.98 17.33 -4.96 17.66 -7 18 C-8.15496195 14.57318983 -8.12530269 13.27580592 -6.6015625 9.921875 C-5.94929687 8.87515625 -5.29703125 7.8284375 -4.625 6.75 C-3.65433594 5.16445312 -3.65433594 5.16445312 -2.6640625 3.546875 C-1 1 -1 1 0 0 Z " fill="#3CBDCB" transform="translate(19,0)"/>
<path d="M0 0 C11.22 0 22.44 0 34 0 C34 0.33 34 0.66 34 1 C33.0821875 1.06058594 32.164375 1.12117188 31.21875 1.18359375 C23.30699598 1.6959988 23.30699598 1.6959988 15.4375 2.625 C12.17241896 2.98119066 10.13688317 2.80432902 7 2 C4.66822025 1.65596692 2.33512959 1.32050798 0 1 C0 0.67 0 0.34 0 0 Z " fill="#5AB9C5" transform="translate(56,32)"/>
<path d="M0 0 C1.47906892 -0.02689216 2.95827483 -0.04634621 4.4375 -0.0625 C5.26121094 -0.07410156 6.08492187 -0.08570312 6.93359375 -0.09765625 C9 0 9 0 10 1 C10.08783542 3.21855264 10.10694609 5.43988496 10.09765625 7.66015625 C10.0962413 8.32462265 10.09482635 8.98908905 10.09336853 9.6736908 C10.08775518 11.80333899 10.07520054 13.93288339 10.0625 16.0625 C10.05748671 17.50325369 10.05292351 18.94400903 10.04882812 20.38476562 C10.03778145 23.92321102 10.02050792 27.46159539 10 31 C9.67 31 9.34 31 9 31 C8.67 21.43 8.34 11.86 8 2 C5.03 2 2.06 2 -1 2 C-0.67 1.34 -0.34 0.68 0 0 Z " fill="#161626" transform="translate(196,27)"/>
<path d="M0 0 C0.33 0.99 0.66 1.98 1 3 C2.65 3 4.3 3 6 3 C6 3.66 6 4.32 6 5 C4.329375 5.5878125 4.329375 5.5878125 2.625 6.1875 C-0.19702641 7.38799914 -0.83997018 7.70903669 -2.375 10.5 C-2.684375 11.7375 -2.684375 11.7375 -3 13 C-3.33 13.99 -3.66 14.98 -4 16 C-5.32 16.33 -6.64 16.66 -8 17 C-5.36 11.39 -2.72 5.78 0 0 Z " fill="#2588CE" transform="translate(8,19)"/>
<path d="M0 0 C0.33 0.66 0.66 1.32 1 2 C0.19555664 3.97119141 0.19555664 3.97119141 -1.08984375 6.3515625 C-1.54423828 7.20234375 -1.99863281 8.053125 -2.46679688 8.9296875 C-2.95212891 9.81914063 -3.43746094 10.70859375 -3.9375 11.625 C-4.41896484 12.5221875 -4.90042969 13.419375 -5.39648438 14.34375 C-6.59058716 16.56643636 -7.79199381 18.78484826 -9 21 C-10.1171875 17.28125 -10.1171875 17.28125 -9.0625 14.75 C-8.711875 14.1725 -8.36125 13.595 -8 13 C-7.34 13 -6.68 13 -6 13 C-6 10.36 -6 7.72 -6 5 C-5.38125 4.731875 -4.7625 4.46375 -4.125 4.1875 C-1.7004767 3.04443152 -1.7004767 3.04443152 0 0 Z " fill="#60B5DC" transform="translate(84,58)"/>
<path d="M0 0 C1.65 0 3.3 0 5 0 C5.33 1.32 5.66 2.64 6 4 C5.67 3.34 5.34 2.68 5 2 C4.01 2.99 3.02 3.98 2 5 C2.639375 5.226875 3.27875 5.45375 3.9375 5.6875 C6 7 6 7 6.75 9.625 C6.8325 10.40875 6.915 11.1925 7 12 C5.125 11.75 5.125 11.75 3 11 C0.6058427 7.72378475 0.45514167 3.94456115 0 0 Z " fill="#3AC6DB" transform="translate(14,68)"/>
<path d="M0 0 C-0.33 0.99 -0.66 1.98 -1 3 C-1.928125 2.95875 -2.85625 2.9175 -3.8125 2.875 C-7.15809719 2.72863661 -7.15809719 2.72863661 -10 5 C-12.625 4.75 -12.625 4.75 -15 4 C-15.33 3.34 -15.66 2.68 -16 2 C-10.42932723 0.40837921 -5.78898419 -0.20674944 0 0 Z " fill="#4ABFD0" transform="translate(84,33)"/>
<path d="M0 0 C2.64 0 5.28 0 8 0 C8.2475 0.598125 8.495 1.19625 8.75 1.8125 C10.16370012 4.28647521 11.65055383 5.43370255 14 7 C10.54802327 7.39451163 9.2982062 7.21819966 6.4375 5.125 C5.633125 4.42375 4.82875 3.7225 4 3 C2.68861096 2.29114106 1.36222983 1.60543548 0 1 C0 0.67 0 0.34 0 0 Z " fill="#288FD6" transform="translate(32,70)"/>
<path d="M0 0 C7.50769231 0.61538462 7.50769231 0.61538462 10 2.5625 C10.33 3.036875 10.66 3.51125 11 4 C9.68 4 8.36 4 7 4 C7 4.66 7 5.32 7 6 C5.68 6.33 4.36 6.66 3 7 C3 5.35 3 3.7 3 2 C2.01 2.33 1.02 2.66 0 3 C0 2.01 0 1.02 0 0 Z " fill="#5697D8" transform="translate(44,65)"/>
<path d="M0 0 C3.2223307 2.14822047 4.08437567 3.7274751 6 7 C7.58245275 8.75149165 7.58245275 8.75149165 9 10 C8.01 11.485 8.01 11.485 7 13 C6.29875 11.9275 5.5975 10.855 4.875 9.75 C2.33037839 6.15544856 -0.21366698 4.20135641 -4 2 C-2.68 1.34 -1.36 0.68 0 0 Z " fill="#6DAAD1" transform="translate(35,41)"/>
<path d="M0 0 C3.63 0.66 7.26 1.32 11 2 C11 2.66 11 3.32 11 4 C6.71 4 2.42 4 -2 4 C-1.34 2.68 -0.68 1.36 0 0 Z " fill="#72B3CD" transform="translate(59,44)"/>
<path d="M0 0 C0.99 0.185625 1.98 0.37125 3 0.5625 C7.17087678 1.17661683 10.85034269 0.65520905 15 0 C13.5625 2.0625 13.5625 2.0625 11 4 C7.88633253 4.21015873 4.97406844 3.95882129 2 3 C1.34 2.01 0.68 1.02 0 0 Z " fill="#3693C9" transform="translate(29,67)"/>
<path d="M0 0 C0.99 0 1.98 0 3 0 C3.185625 0.94875 3.37125 1.8975 3.5625 2.875 C4.73400805 6.38371699 4.73400805 6.38371699 8.625 7.375 C9.73875 7.58125 10.8525 7.7875 12 8 C12 8.33 12 8.66 12 9 C5.67256637 8.51327434 5.67256637 8.51327434 2.625 6.1875 C1.02836948 4.03818968 0.37503032 2.62521224 0 0 Z " fill="#6195C1" transform="translate(64,15)"/>
<path d="M0 0 C0.33 0.99 0.66 1.98 1 3 C1.99 2.34 2.98 1.68 4 1 C4.99 1 5.98 1 7 1 C7 1.99 7 2.98 7 4 C4.04335481 5.4783226 1.25770263 5.06032783 -2 5 C-2 2 -2 2 0 0 Z " fill="#53BCE7" transform="translate(25,9)"/>
<path d="M0 0 C2.49361571 1.20381448 4.68143083 2.45428722 7 4 C7 4.66 7 5.32 7 6 C4.36 6 1.72 6 -1 6 C-0.34 5.67 0.32 5.34 1 5 C0.34 3.68 -0.32 2.36 -1 1 C-0.67 0.67 -0.34 0.34 0 0 Z " fill="#2CB9E1" transform="translate(35,75)"/>
<path d="M0 0 C3.0109362 2.0072908 3.63016497 2.83884224 5 6 C3.02 6.33 1.04 6.66 -1 7 C-1.625 4.625 -1.625 4.625 -2 2 C-1.34 1.34 -0.68 0.68 0 0 Z " fill="#34C4E2" transform="translate(13,11)"/>
<path d="M0 0 C0.99 0.495 0.99 0.495 2 1 C2 1.66 2 2.32 2 3 C3.32 3.66 4.64 4.32 6 5 C5.67 5.99 5.34 6.98 5 8 C1.125 7.125 1.125 7.125 0 6 C-0.04080783 4.00041636 -0.04254356 1.99954746 0 0 Z " fill="#3BC4E9" transform="translate(45,22)"/>
<path d="M0 0 C0.99 0 1.98 0 3 0 C3.12375 0.78375 3.2475 1.5675 3.375 2.375 C3.79117993 5.14057822 3.79117993 5.14057822 6 7 C5.34 8.32 4.68 9.64 4 11 C3.32880451 9.5437455 2.66318193 8.08492133 2 6.625 C1.62875 5.81289063 1.2575 5.00078125 0.875 4.1640625 C0 2 0 2 0 0 Z " fill="#6AA9C3" transform="translate(6,54)"/>
<path d="M0 0 C0.66 0.33 1.32 0.66 2 1 C2.40729228 3.32156597 2.74438677 5.6568787 3 8 C1.0625 7.6875 1.0625 7.6875 -1 7 C-2 4 -2 4 -1.0625 1.8125 C-0.5365625 0.9153125 -0.5365625 0.9153125 0 0 Z " fill="#31C6D6" transform="translate(91,34)"/>
<path d="M0 0 C1.22853597 4.91414388 0.38965954 6.63269119 -2 11 C-3.32 11.33 -4.64 11.66 -6 12 C-4.02 8.04 -2.04 4.08 0 0 Z " fill="#3E88C2" transform="translate(6,24)"/>
<path d="M0 0 C0.66 0 1.32 0 2 0 C0.77472971 4.05281712 -0.69880494 7.44360764 -3 11 C-3.93065133 8.39417629 -4.14917407 7.35801776 -3.0625 4.75 C-2.5365625 3.88375 -2.5365625 3.88375 -2 3 C-1.34 3 -0.68 3 0 3 C0 2.01 0 1.02 0 0 Z " fill="#6BA7D2" transform="translate(78,68)"/>
<path d="M0 0 C3.10551666 3.10551666 3.81323934 4.89198233 5 9 C3.68 9 2.36 9 1 9 C0.67 6.03 0.34 3.06 0 0 Z " fill="#64A8DD" transform="translate(17,44)"/>
<path d="M0 0 C1.98 0 3.96 0 6 0 C5.34 1.65 4.68 3.3 4 5 C3.01 5 2.02 5 1 5 C0.67 3.35 0.34 1.7 0 0 Z " fill="#46C7D0" transform="translate(56,33)"/>
<path d="M0 0 C0.99 0.33 1.98 0.66 3 1 C1.70700306 3.88437779 0.34058637 5.87219421 -2 8 C-1.125 2.25 -1.125 2.25 0 0 Z " fill="#60BAD6" transform="translate(69,53)"/>
<path d="M0 0 C2.4375 1.1875 2.4375 1.1875 3.4375 3.1875 C2.674375 2.98125 1.91125 2.775 1.125 2.5625 C-1.78135944 1.85358797 -1.78135944 1.85358797 -4.5625 4.1875 C-4.5625 2.8675 -4.5625 1.5475 -4.5625 0.1875 C-2.5625 -0.8125 -2.5625 -0.8125 0 0 Z " fill="#44C0DC" transform="translate(52.5625,29.8125)"/>
<path d="M0 0 C5.41538462 -0.36923077 5.41538462 -0.36923077 8.375 1.5 C8.91125 1.995 9.4475 2.49 10 3 C3.47692308 3.36923077 3.47692308 3.36923077 1.0625 1.5 C0.5365625 0.7575 0.5365625 0.7575 0 0 Z " fill="#60BAD5" transform="translate(59,43)"/>
<path d="M0 0 C0.66 0.33 1.32 0.66 2 1 C1.01 2.98 0.02 4.96 -1 7 C-1.66 7 -2.32 7 -3 7 C-3 5.02 -3 3.04 -3 1 C-2.01 0.67 -1.02 0.34 0 0 Z " fill="#1D7FD6" transform="translate(24,20)"/>
<path d="M0 0 C4.875 1.75 4.875 1.75 6 4 C4.02 4 2.04 4 0 4 C0 2.68 0 1.36 0 0 Z " fill="#238DCD" transform="translate(46,77)"/>
</svg>
