<?xml version="1.0" encoding="UTF-8"?>
<!DOCTYPE svg PUBLIC "-//W3C//DTD SVG 1.1//EN" "http://www.w3.org/Graphics/SVG/1.1/DTD/svg11.dtd">
<svg xmlns="http://www.w3.org/2000/svg" version="1.1" width="512px" height="512px" style="shape-rendering:geometricPrecision; text-rendering:geometricPrecision; image-rendering:optimizeQuality; fill-rule:evenodd; clip-rule:evenodd" xmlns:xlink="http://www.w3.org/1999/xlink">
<g><path style="opacity:0.9" fill="#000F26" d="M 436.5,83.5 C 436.5,98.5 436.5,113.5 436.5,128.5C 296.167,128.5 155.833,128.5 15.5,128.5C 15.5,112.833 15.5,97.1667 15.5,81.5C 19.5661,60.9333 31.8995,48.4333 52.5,44C 168.167,43.3333 283.833,43.3333 399.5,44C 421.003,48.6677 433.337,61.8343 436.5,83.5 Z"/></g>
<g><path style="opacity:0.5" fill="#E2DBDA" d="M 59.5,75.5 C 73.3757,73.8739 79.2091,79.8739 77,93.5C 73.1579,100.453 67.3246,102.953 59.5,101C 52.933,96.9794 50.433,91.146 52,83.5C 54.0282,80.3078 56.5282,77.6411 59.5,75.5 Z"/></g>
<g><path style="opacity:0.5" fill="#E2DBDA" d="M 105.5,75.5 C 112.644,73.9924 118.477,75.9924 123,81.5C 126.546,95.6221 121.046,102.122 106.5,101C 98.9631,96.9682 96.4631,90.8015 99,82.5C 100.694,79.6424 102.861,77.309 105.5,75.5 Z"/></g>
<g><path style="opacity:0.5" fill="#E2DBDA" d="M 152.5,75.5 C 165.118,73.6274 171.285,78.9607 171,91.5C 166.505,101.333 159.338,103.833 149.5,99C 142.134,90.0619 143.134,82.2286 152.5,75.5 Z"/></g>
<g><path style="opacity:0.8" fill="#E2DBDA" d="M 257.5,74.5 C 302.168,74.3333 346.835,74.5 391.5,75C 400.755,79.0721 402.922,85.5721 398,94.5C 396.421,96.0412 394.587,97.2078 392.5,98C 346.833,98.6667 301.167,98.6667 255.5,98C 248.661,93.8149 246.828,87.9816 250,80.5C 252.134,77.8474 254.634,75.8474 257.5,74.5 Z"/></g>
<g><path style="opacity:1" fill="#000F26" d="M 15.5,81.5 C 15.5,97.1667 15.5,112.833 15.5,128.5C 155.833,128.5 296.167,128.5 436.5,128.5C 436.5,113.5 436.5,98.5 436.5,83.5C 437.496,98.6576 437.83,113.991 437.5,129.5C 296.5,129.5 155.5,129.5 14.5,129.5C 14.1703,113.325 14.5036,97.3246 15.5,81.5 Z"/></g>
<g><path style="opacity:0.7" fill="#000F26" d="M 14.5,129.5 C 155.5,129.5 296.5,129.5 437.5,129.5C 437.5,137.5 437.5,145.5 437.5,153.5C 409.165,153.333 380.831,153.5 352.5,154C 343.514,155.495 335.18,158.662 327.5,163.5C 239.833,163.333 152.166,163.5 64.5,164C 57.6902,167.136 53.3569,172.303 51.5,179.5C 50.1667,258.167 50.1667,336.833 51.5,415.5C 52.6773,424.517 57.6773,430.35 66.5,433C 173.167,433.667 279.833,433.667 386.5,433C 394.333,430.5 399.5,425.333 402,417.5C 402.5,401.503 402.667,385.503 402.5,369.5C 402.5,337.5 402.5,305.5 402.5,273.5C 414.167,273.5 425.833,273.5 437.5,273.5C 437.667,324.834 437.5,376.168 437,427.5C 433.284,449.549 420.451,462.716 398.5,467C 283.167,467.667 167.833,467.667 52.5,467C 31.5475,462.381 19.0475,449.548 15,428.5C 14.5,328.834 14.3333,229.167 14.5,129.5 Z"/></g>
<g><path style="opacity:0.997" fill="#E2DBDA" d="M 437.5,153.5 C 466.967,154.142 486.134,168.476 495,196.5C 502.083,228.984 491.249,253.15 462.5,269C 454.436,272.011 446.103,273.511 437.5,273.5C 425.833,273.5 414.167,273.5 402.5,273.5C 397.156,273.334 391.823,273.501 386.5,274C 377.536,281.295 368.87,288.962 360.5,297C 357.784,299.151 355.284,298.984 353,296.5C 352.667,289.167 352.333,281.833 352,274.5C 314.276,263.079 298.276,237.746 304,198.5C 307.681,183.996 315.514,172.329 327.5,163.5C 335.18,158.662 343.514,155.495 352.5,154C 380.831,153.5 409.165,153.333 437.5,153.5 Z"/></g>
<g><path style="opacity:0.85" fill="#000F26" d="M 327.5,163.5 C 315.514,172.329 307.681,183.996 304,198.5C 298.276,237.746 314.276,263.079 352,274.5C 352.333,281.833 352.667,289.167 353,296.5C 355.284,298.984 357.784,299.151 360.5,297C 368.87,288.962 377.536,281.295 386.5,274C 391.823,273.501 397.156,273.334 402.5,273.5C 402.5,305.5 402.5,337.5 402.5,369.5C 402.167,369.5 401.833,369.5 401.5,369.5C 285.001,368.5 168.335,368.167 51.5,368.5C 51.5,305.5 51.5,242.5 51.5,179.5C 53.3569,172.303 57.6902,167.136 64.5,164C 152.166,163.5 239.833,163.333 327.5,163.5 Z"/></g>
<g><path style="opacity:0.9" fill="#000F26" d="M 360.5,190.5 C 381.272,190.386 397.939,198.553 410.5,215C 381.896,247.597 353.229,247.597 324.5,215C 334.082,203.06 346.082,194.893 360.5,190.5 Z"/></g>
<g><path style="opacity:1" fill="#010103" d="M 431.5,197.5 C 434.365,197.055 436.865,197.722 439,199.5C 439.5,207.493 439.666,215.493 439.5,223.5C 445.488,223.664 446.821,226.164 443.5,231C 437.833,231.667 432.167,231.667 426.5,231C 423.329,225.638 424.996,223.138 431.5,223.5C 431.828,218.125 431.495,212.792 430.5,207.5C 425.412,208.902 423.579,206.902 425,201.5C 427.314,200.267 429.481,198.933 431.5,197.5 Z"/></g>
<g><path style="opacity:1" fill="#020407" d="M 452.5,197.5 C 459.09,197.189 465.59,197.522 472,198.5C 472.743,200.441 472.576,202.274 471.5,204C 467.167,204.333 462.833,204.667 458.5,205C 457.663,206.011 457.33,207.178 457.5,208.5C 470.684,207.176 475.851,212.842 473,225.5C 470.122,230.022 465.955,232.022 460.5,231.5C 455.954,232.041 452.12,230.708 449,227.5C 448.175,225.299 448.675,223.466 450.5,222C 454.964,223.269 459.63,223.602 464.5,223C 467.167,221 467.167,219 464.5,217C 460.663,216.239 456.996,216.739 453.5,218.5C 451.893,218.363 450.559,217.696 449.5,216.5C 448.422,209.82 449.422,203.487 452.5,197.5 Z"/></g>
<g><path style="opacity:1" fill="#E2DBDA" d="M 363.5,202.5 C 378.083,202.997 382.583,209.997 377,223.5C 369.643,229.4 362.976,228.734 357,221.5C 353.515,213.152 355.682,206.819 363.5,202.5 Z"/></g>
<g><path style="opacity:1" fill="#E2DBDA" d="M 196.5,214.5 C 201.382,214.193 206.049,215.026 210.5,217C 229.093,228.211 247.26,240.044 265,252.5C 269.354,261.482 267.854,269.315 260.5,276C 243.833,286.333 227.167,296.667 210.5,307C 199,312.331 190.834,309.164 186,297.5C 185.333,273.5 185.333,249.5 186,225.5C 188.357,220.645 191.857,216.979 196.5,214.5 Z"/></g>
<g><path style="opacity:1" fill="#000F26" d="M 51.5,179.5 C 51.5,242.5 51.5,305.5 51.5,368.5C 168.335,368.167 285.001,368.5 401.5,369.5C 284.833,369.5 168.167,369.5 51.5,369.5C 51.5,384.833 51.5,400.167 51.5,415.5C 50.1667,336.833 50.1667,258.167 51.5,179.5 Z"/></g>
<g><path style="opacity:1" fill="#000F26" d="M 401.5,369.5 C 401.833,369.5 402.167,369.5 402.5,369.5C 402.667,385.503 402.5,401.503 402,417.5C 399.5,425.333 394.333,430.5 386.5,433C 279.833,433.667 173.167,433.667 66.5,433C 57.6773,430.35 52.6773,424.517 51.5,415.5C 51.5,400.167 51.5,384.833 51.5,369.5C 168.167,369.5 284.833,369.5 401.5,369.5 Z"/></g>
<g><path style="opacity:1" fill="#E2DBDA" d="M 150.5,397.5 C 150.5,399.833 150.5,402.167 150.5,404.5C 146.054,415.373 138.387,418.539 127.5,414C 124.115,411.471 121.782,408.304 120.5,404.5C 120.5,402.167 120.5,399.833 120.5,397.5C 125.361,386.225 133.361,383.392 144.5,389C 147.395,391.322 149.395,394.155 150.5,397.5 Z"/></g>
<g><path style="opacity:1" fill="#9799FB" d="M 120.5,397.5 C 120.5,399.833 120.5,402.167 120.5,404.5C 110.81,404.832 101.144,404.498 91.5,403.5C 90.0465,401.356 90.3799,399.523 92.5,398C 101.827,397.5 111.161,397.334 120.5,397.5 Z"/></g>
<g><path style="opacity:1" fill="#E2DBDA" d="M 150.5,397.5 C 220.501,397.333 290.501,397.5 360.5,398C 362.62,399.523 362.953,401.356 361.5,403.5C 291.17,404.5 220.836,404.833 150.5,404.5C 150.5,402.167 150.5,399.833 150.5,397.5 Z"/></g>
</svg>
