<?xml version="1.0" encoding="UTF-8"?>
<!DOCTYPE svg PUBLIC "-//W3C//DTD SVG 1.1//EN" "http://www.w3.org/Graphics/SVG/1.1/DTD/svg11.dtd">
<svg xmlns="http://www.w3.org/2000/svg" version="1.1" width="512px" height="512px" style="shape-rendering:geometricPrecision; text-rendering:geometricPrecision; image-rendering:optimizeQuality; fill-rule:evenodd; clip-rule:evenodd" xmlns:xlink="http://www.w3.org/1999/xlink">
<g><path style="opacity:0.901" fill="#fff" d="M 132.5,108.5 C 137.844,108.334 143.177,108.501 148.5,109C 152.647,109.148 155.814,110.982 158,114.5C 158.499,119.489 158.666,124.489 158.5,129.5C 170.5,129.5 182.5,129.5 194.5,129.5C 191.004,114.431 196.837,107.431 212,108.5C 227.181,107.48 233.014,114.48 229.5,129.5C 241.5,129.5 253.5,129.5 265.5,129.5C 262.325,114.178 268.492,107.178 284,108.5C 298.945,107.626 304.779,114.626 301.5,129.5C 314.171,129.333 326.838,129.5 339.5,130C 345.844,131.421 350.677,134.921 354,140.5C 355.473,166.769 355.973,193.102 355.5,219.5C 370.572,219.049 385.572,219.549 400.5,221C 403,222.167 404.833,224 406,226.5C 407.108,230.086 407.608,233.753 407.5,237.5C 417.58,237.077 427.58,237.577 437.5,239C 439.378,240.543 440.878,242.376 442,244.5C 443.139,266.126 443.639,287.793 443.5,309.5C 443.639,331.207 443.139,352.874 442,374.5C 440.332,378.165 437.499,380.332 433.5,381C 407.835,381.5 382.169,381.667 356.5,381.5C 354.377,394.452 346.71,401.286 333.5,402C 252.5,402.667 171.5,402.667 90.5,402C 78.5849,401.743 71.0849,395.91 68,384.5C 67.3333,305.5 67.3333,226.5 68,147.5C 69.4884,139.002 74.3217,133.502 82.5,131C 95.7731,129.575 109.106,129.075 122.5,129.5C 122.175,124.401 122.675,119.401 124,114.5C 125.943,111.122 128.776,109.122 132.5,108.5 Z M 134.5,120.5 C 138.5,120.5 142.5,120.5 146.5,120.5C 146.5,130.167 146.5,139.833 146.5,149.5C 142.5,149.5 138.5,149.5 134.5,149.5C 134.5,139.833 134.5,130.167 134.5,120.5 Z M 205.5,120.5 C 209.833,120.5 214.167,120.5 218.5,120.5C 218.5,130.167 218.5,139.833 218.5,149.5C 214.167,149.5 209.833,149.5 205.5,149.5C 205.5,139.833 205.5,130.167 205.5,120.5 Z M 277.5,120.5 C 281.5,120.5 285.5,120.5 289.5,120.5C 289.5,130.167 289.5,139.833 289.5,149.5C 285.5,149.5 281.5,149.5 277.5,149.5C 277.5,139.833 277.5,130.167 277.5,120.5 Z M 158.5,140.5 C 170.5,140.5 182.5,140.5 194.5,140.5C 190.559,156.029 196.393,163.029 212,161.5C 227.624,162.984 233.457,155.984 229.5,140.5C 241.5,140.5 253.5,140.5 265.5,140.5C 262.031,156.296 268.198,163.296 284,161.5C 287.5,161.333 291,161.167 294.5,161C 298,160.167 300.167,158 301,154.5C 301.499,149.845 301.666,145.179 301.5,140.5C 312.505,140.333 323.505,140.5 334.5,141C 337.196,141.765 339.696,142.932 342,144.5C 343.481,169.41 343.981,194.41 343.5,219.5C 322.497,219.333 301.497,219.5 280.5,220C 277.452,220.606 274.952,222.106 273,224.5C 271.101,228.621 270.268,232.954 270.5,237.5C 261.494,237.334 252.494,237.5 243.5,238C 238.901,239.598 236.068,242.765 235,247.5C 234.017,289.893 234.35,332.226 236,374.5C 238.264,377.433 241.098,379.6 244.5,381C 277.832,381.5 311.165,381.667 344.5,381.5C 344.21,385.961 341.877,388.795 337.5,390C 253.833,390.667 170.167,390.667 86.5,390C 83.4173,389.214 81.2506,387.381 80,384.5C 79.3333,305.833 79.3333,227.167 80,148.5C 81.587,145.244 84.087,143.077 87.5,142C 99.1619,141.5 110.829,141.333 122.5,141.5C 119.915,156.412 126.082,163.079 141,161.5C 144.5,161.333 148,161.167 151.5,161C 154.583,160.214 156.749,158.381 158,155.5C 158.499,150.511 158.666,145.511 158.5,140.5 Z M 282.5,231.5 C 320.167,231.5 357.833,231.5 395.5,231.5C 395.334,236.179 395.501,240.845 396,245.5C 396.833,246.333 397.667,247.167 398.5,248C 409.41,248.179 420.243,248.679 431,249.5C 431.667,289.5 431.667,329.5 431,369.5C 400.571,370.165 370.071,370.498 339.5,370.5C 308.792,370.496 278.126,370.163 247.5,369.5C 246.167,329.5 246.167,289.5 247.5,249.5C 258.884,248.978 270.217,248.145 281.5,247C 282.471,241.928 282.805,236.762 282.5,231.5 Z M 332.5,263.5 C 355.496,262.006 369.996,272.339 376,294.5C 377.142,320.367 364.808,335.034 339,338.5C 323.44,337.055 312.107,329.389 305,315.5C 297.589,289.32 306.755,271.987 332.5,263.5 Z M 337.5,282.5 C 354.562,284.953 360.062,294.286 354,310.5C 346.159,319.558 337.325,320.725 327.5,314C 318.739,303.276 319.739,293.61 330.5,285C 333.004,284.302 335.337,283.469 337.5,282.5 Z"/></g>
<g><path style="opacity:0.893" fill="#fff" d="M 116.5,171.5 C 131.17,171.333 145.837,171.5 160.5,172C 164.704,176.155 164.371,179.822 159.5,183C 145.5,183.667 131.5,183.667 117.5,183C 114.797,182.135 113.464,180.301 113.5,177.5C 113.467,174.898 114.467,172.898 116.5,171.5 Z"/></g>
<g><path style="opacity:0.899" fill="#fff" d="M 189.5,171.5 C 204.504,171.333 219.504,171.5 234.5,172C 238.309,176.292 237.642,179.958 232.5,183C 218.833,183.667 205.167,183.667 191.5,183C 187.708,180.947 186.542,177.781 188,173.5C 188.717,172.956 189.217,172.289 189.5,171.5 Z"/></g>
<g><path style="opacity:0.863" fill="#fff" d="M 264.5,171.5 C 278.504,171.333 292.504,171.5 306.5,172C 310.213,173.691 311.379,176.525 310,180.5C 309.097,181.701 307.931,182.535 306.5,183C 292.5,183.667 278.5,183.667 264.5,183C 259.209,179.085 259.209,175.252 264.5,171.5 Z"/></g>
<g><path style="opacity:0.906" fill="#fff" d="M 112.5,200.5 C 178.834,200.333 245.168,200.5 311.5,201C 314.797,201.575 316.464,203.575 316.5,207C 316.516,209.305 315.516,210.972 313.5,212C 245.833,212.667 178.167,212.667 110.5,212C 106.226,207.211 106.892,203.377 112.5,200.5 Z"/></g>
<g><path style="opacity:0.902" fill="#fff" d="M 110.5,230.5 C 149.835,230.333 189.168,230.5 228.5,231C 232.704,235.155 232.371,238.822 227.5,242C 188.833,242.667 150.167,242.667 111.5,242C 106.649,238.573 106.316,234.74 110.5,230.5 Z"/></g>
<g><path style="opacity:0.898" fill="#fff" d="M 329.5,252.5 C 358.66,249.646 377.827,261.98 387,289.5C 390.682,309.12 385.182,325.62 370.5,339C 352.32,351.384 333.32,352.717 313.5,343C 289.852,325.123 284.352,302.623 297,275.5C 304.683,263.308 315.516,255.641 329.5,252.5 Z M 332.5,263.5 C 306.755,271.987 297.589,289.32 305,315.5C 312.107,329.389 323.44,337.055 339,338.5C 364.808,335.034 377.142,320.367 376,294.5C 369.996,272.339 355.496,262.006 332.5,263.5 Z M 337.5,282.5 C 335.337,283.469 333.004,284.302 330.5,285C 319.739,293.61 318.739,303.276 327.5,314C 337.325,320.725 346.159,319.558 354,310.5C 360.062,294.286 354.562,284.953 337.5,282.5 Z"/></g>
<g><path style="opacity:0.902" fill="#fff" d="M 110.5,259.5 C 145.502,259.333 180.502,259.5 215.5,260C 219.5,263.667 219.5,267.333 215.5,271C 180.5,271.667 145.5,271.667 110.5,271C 106.581,267.173 106.581,263.339 110.5,259.5 Z"/></g>
<g><path style="opacity:0.904" fill="#fff" d="M 274.5,268.5 C 277.505,268.253 280.005,269.253 282,271.5C 282.667,296.833 282.667,322.167 282,347.5C 279.503,349.478 276.669,349.978 273.5,349C 272.107,347.829 271.273,346.329 271,344.5C 270.333,320.833 270.333,297.167 271,273.5C 271.997,271.677 273.164,270.01 274.5,268.5 Z"/></g>
<g><path style="opacity:0.902" fill="#fff" d="M 399.5,268.5 C 402.505,268.253 405.005,269.253 407,271.5C 407.667,296.5 407.667,321.5 407,346.5C 403.38,350.487 399.713,350.487 396,346.5C 395.333,321.833 395.333,297.167 396,272.5C 396.69,270.65 397.856,269.316 399.5,268.5 Z"/></g>
<g><path style="opacity:0.898" fill="#fff" d="M 333.5,271.5 C 351.527,270.254 363.027,278.254 368,295.5C 369.787,314.099 361.62,325.599 343.5,330C 321.005,330.172 309.838,319.005 310,296.5C 312.942,283.396 320.775,275.063 333.5,271.5 Z M 337.5,282.5 C 335.337,283.469 333.004,284.302 330.5,285C 319.739,293.61 318.739,303.276 327.5,314C 337.325,320.725 346.159,319.558 354,310.5C 360.062,294.286 354.562,284.953 337.5,282.5 Z"/></g>
<g><path style="opacity:0.903" fill="#fff" d="M 110.5,289.5 C 145.835,289.333 181.168,289.5 216.5,290C 218.478,292.497 218.978,295.331 218,298.5C 216.829,299.893 215.329,300.727 213.5,301C 179.833,301.667 146.167,301.667 112.5,301C 109.203,300.425 107.536,298.425 107.5,295C 107.863,292.808 108.863,290.974 110.5,289.5 Z"/></g>
<g><path style="opacity:0.903" fill="#fff" d="M 110.5,318.5 C 145.502,318.333 180.502,318.5 215.5,319C 218.287,321.167 219.12,324.001 218,327.5C 217.097,328.701 215.931,329.535 214.5,330C 180.167,330.667 145.833,330.667 111.5,330C 106.649,326.573 106.316,322.74 110.5,318.5 Z"/></g>
<g><path style="opacity:0.902" fill="#fff" d="M 167.5,347.5 C 182.837,347.333 198.17,347.5 213.5,348C 218.218,349.449 219.718,352.615 218,357.5C 217.5,358 217,358.5 216.5,359C 199.167,359.667 181.833,359.667 164.5,359C 160.32,353.851 161.32,350.018 167.5,347.5 Z"/></g>
</svg>
