<?xml version="1.0" encoding="UTF-8"?>
<!DOCTYPE svg PUBLIC "-//W3C//DTD SVG 1.1//EN" "http://www.w3.org/Graphics/SVG/1.1/DTD/svg11.dtd">
<svg xmlns="http://www.w3.org/2000/svg" version="1.1" width="512px" height="512px" style="shape-rendering:geometricPrecision; text-rendering:geometricPrecision; image-rendering:optimizeQuality; fill-rule:evenodd; clip-rule:evenodd" xmlns:xlink="http://www.w3.org/1999/xlink">
<g><path style="opacity:0.973" fill="#9799FB" d="M 251.5,63.5 C 254.187,63.3359 256.854,63.5026 259.5,64C 261.333,64.5 262.5,65.6667 263,67.5C 263.667,75.5 263.667,83.5 263,91.5C 262.5,93.3333 261.333,94.5 259.5,95C 256.833,95.6667 254.167,95.6667 251.5,95C 249.667,94.5 248.5,93.3333 248,91.5C 247.333,83.5 247.333,75.5 248,67.5C 248.69,65.6498 249.856,64.3164 251.5,63.5 Z"/></g>
<g><path style="opacity:0.964" fill="#000F26" d="M 203.5,79.5 C 206.978,79.1842 210.312,79.6842 213.5,81C 217.333,84.8333 221.167,88.6667 225,92.5C 229.377,100.076 227.377,105.076 219,107.5C 216.679,107.091 214.513,106.257 212.5,105C 208.667,101.167 204.833,97.3333 201,93.5C 198.425,88.034 199.258,83.3673 203.5,79.5 Z"/></g>
<g><path style="opacity:0.949" fill="#000F26" d="M 299.5,79.5 C 309.33,77.8292 313.163,81.8292 311,91.5C 306.458,97.7098 300.958,102.876 294.5,107C 285.148,106.97 281.981,102.47 285,93.5C 289.729,88.6025 294.562,83.9359 299.5,79.5 Z"/></g>
<g><path style="opacity:0.998" fill="#9799FB" d="M 196.5,127.5 C 205.392,130.557 211.559,136.557 215,145.5C 215.333,165.5 215.667,185.5 216,205.5C 218.333,208.167 220.667,208.167 223,205.5C 223.5,190.504 223.667,175.504 223.5,160.5C 227.199,150.805 234.199,145.138 244.5,143.5C 253.392,146.557 259.559,152.557 263,161.5C 263.333,176.167 263.667,190.833 264,205.5C 266.333,208.167 268.667,208.167 271,205.5C 271.5,193.171 271.667,180.838 271.5,168.5C 275.199,158.805 282.199,153.138 292.5,151.5C 300.254,154.075 306.088,159.075 310,166.5C 311.277,179.431 311.943,192.431 312,205.5C 314.333,208.167 316.667,208.167 319,205.5C 319.5,195.839 319.666,186.172 319.5,176.5C 323.199,166.805 330.199,161.138 340.5,159.5C 349.417,162.583 355.584,168.583 359,177.5C 359.667,216.167 359.667,254.833 359,293.5C 357.519,307.279 352.519,319.613 344,330.5C 343.5,342.829 343.333,355.162 343.5,367.5C 292.833,367.5 242.167,367.5 191.5,367.5C 191.672,361.858 190.505,356.524 188,351.5C 180.081,346.458 172.248,341.291 164.5,336C 145.688,316.625 138.688,293.458 143.5,266.5C 145.797,264.706 147.963,262.706 150,260.5C 152.215,255.9 155.048,251.734 158.5,248C 161.482,247.502 164.482,247.335 167.5,247.5C 167.334,256.839 167.5,266.173 168,275.5C 169.188,279.21 171.355,282.21 174.5,284.5C 175.499,269.515 175.833,254.515 175.5,239.5C 175.5,228.833 175.5,218.167 175.5,207.5C 175.333,186.497 175.5,165.497 176,144.5C 179.386,134.609 186.22,128.942 196.5,127.5 Z"/></g>
<g><path style="opacity:1" fill="#000F26" d="M 196.5,127.5 C 209.816,126.238 218.649,131.905 223,144.5C 223.499,149.823 223.666,155.156 223.5,160.5C 223.667,175.504 223.5,190.504 223,205.5C 220.667,208.167 218.333,208.167 216,205.5C 215.667,185.5 215.333,165.5 215,145.5C 211.559,136.557 205.392,130.557 196.5,127.5 Z"/></g>
<g><path style="opacity:1" fill="#000F26" d="M 244.5,143.5 C 256.261,142.296 264.761,146.963 270,157.5C 271.237,161.06 271.737,164.727 271.5,168.5C 271.667,180.838 271.5,193.171 271,205.5C 268.667,208.167 266.333,208.167 264,205.5C 263.667,190.833 263.333,176.167 263,161.5C 259.559,152.557 253.392,146.557 244.5,143.5 Z"/></g>
<g><path style="opacity:1" fill="#000F26" d="M 292.5,151.5 C 304.261,150.296 312.761,154.963 318,165.5C 319.237,169.06 319.737,172.727 319.5,176.5C 319.666,186.172 319.5,195.839 319,205.5C 316.667,208.167 314.333,208.167 312,205.5C 311.943,192.431 311.277,179.431 310,166.5C 306.088,159.075 300.254,154.075 292.5,151.5 Z"/></g>
<g><path style="opacity:0.8" fill="#000F26" d="M 340.5,159.5 C 353.816,158.238 362.649,163.905 367,176.5C 367.5,186.828 367.666,197.161 367.5,207.5C 367.5,218.167 367.5,228.833 367.5,239.5C 367.667,259.169 367.5,278.836 367,298.5C 364.518,310.13 359.852,320.796 353,330.5C 351.604,345.456 351.104,360.456 351.5,375.5C 298.167,375.5 244.833,375.5 191.5,375.5C 191.5,372.833 191.5,370.167 191.5,367.5C 242.167,367.5 292.833,367.5 343.5,367.5C 343.333,355.162 343.5,342.829 344,330.5C 352.519,319.613 357.519,307.279 359,293.5C 359.667,254.833 359.667,216.167 359,177.5C 355.584,168.583 349.417,162.583 340.5,159.5 Z"/></g>
<g><path style="opacity:0.8" fill="#000F26" d="M 175.5,207.5 C 175.5,218.167 175.5,228.833 175.5,239.5C 169.379,239.09 163.379,239.59 157.5,241C 153.182,247.823 148.516,254.323 143.5,260.5C 129.848,271.242 114.515,274.409 97.5,270C 71.7879,259.924 60.6213,241.091 64,213.5C 72.5683,184.956 91.7349,172.456 121.5,176C 132.947,178.641 142.447,184.475 150,193.5C 152.215,198.1 155.048,202.266 158.5,206C 164.088,207.289 169.755,207.789 175.5,207.5 Z"/></g>
<g><path style="opacity:0.8" fill="#000F26" d="M 367.5,239.5 C 367.5,228.833 367.5,218.167 367.5,207.5C 372.833,207.5 378.167,207.5 383.5,207.5C 383.334,198.161 383.5,188.827 384,179.5C 385.529,176.484 388.029,175.151 391.5,175.5C 394.971,175.151 397.471,176.484 399,179.5C 399.5,188.827 399.666,198.161 399.5,207.5C 404.833,207.5 410.167,207.5 415.5,207.5C 415.334,198.161 415.5,188.827 416,179.5C 417.529,176.484 420.029,175.151 423.5,175.5C 426.971,175.151 429.471,176.484 431,179.5C 431.5,188.827 431.666,198.161 431.5,207.5C 444.722,208.899 449.889,216.233 447,229.5C 445.558,233.275 443.058,236.108 439.5,238C 415.59,239.48 391.59,239.98 367.5,239.5 Z"/></g>
<g><path style="opacity:1" fill="#9799FB" d="M 139.5,215.5 C 136.04,218.402 132.373,221.069 128.5,223.5C 130.246,225.252 132.246,226.585 134.5,227.5C 139.986,229.966 141.652,233.966 139.5,239.5C 137.523,241.739 135.023,243.073 132,243.5C 127.594,242.297 123.594,240.297 120,237.5C 119.503,240.146 119.336,242.813 119.5,245.5C 119.5,246.833 119.5,248.167 119.5,249.5C 116.742,255.033 112.408,256.533 106.5,254C 105.219,252.591 104.219,251.091 103.5,249.5C 103.5,248.167 103.5,246.833 103.5,245.5C 103.664,242.813 103.497,240.146 103,237.5C 98.5292,241.494 93.3625,243.327 87.5,243C 85.9733,241.968 84.64,240.801 83.5,239.5C 82.6103,237.218 82.4436,234.885 83,232.5C 84.7073,230.963 86.2073,229.296 87.5,227.5C 90.2668,226.949 92.6001,225.616 94.5,223.5C 90.5888,221.057 86.9221,218.39 83.5,215.5C 81.6418,207.19 84.9751,203.357 93.5,204C 96.6667,205.833 99.8333,207.667 103,209.5C 103.333,205.167 103.667,200.833 104,196.5C 107.855,190.665 112.522,189.998 118,194.5C 119.224,199.386 119.891,204.386 120,209.5C 124.209,205.804 129.042,203.971 134.5,204C 140.157,206.156 141.824,209.989 139.5,215.5 Z"/></g>
<g><path style="opacity:1" fill="#000F26" d="M 83.5,215.5 C 86.9221,218.39 90.5888,221.057 94.5,223.5C 92.6001,225.616 90.2668,226.949 87.5,227.5C 85.832,225.66 84.332,223.66 83,221.5C 82.3224,219.402 82.4891,217.402 83.5,215.5 Z"/></g>
<g><path style="opacity:1" fill="#000F26" d="M 139.5,215.5 C 140.698,220.879 139.031,224.879 134.5,227.5C 132.246,226.585 130.246,225.252 128.5,223.5C 132.373,221.069 136.04,218.402 139.5,215.5 Z"/></g>
<g><path style="opacity:1" fill="#000F26" d="M 103.5,245.5 C 100.699,246.735 98.0321,248.235 95.5,250C 86.0132,252.677 82.0132,249.177 83.5,239.5C 84.64,240.801 85.9733,241.968 87.5,243C 93.3625,243.327 98.5292,241.494 103,237.5C 103.497,240.146 103.664,242.813 103.5,245.5 Z"/></g>
<g><path style="opacity:1" fill="#000F26" d="M 139.5,239.5 C 140.989,247.512 137.655,251.345 129.5,251C 126.277,248.938 122.943,247.104 119.5,245.5C 119.336,242.813 119.503,240.146 120,237.5C 123.594,240.297 127.594,242.297 132,243.5C 135.023,243.073 137.523,241.739 139.5,239.5 Z"/></g>
<g><path style="opacity:0.9" fill="#000F26" d="M 175.5,239.5 C 175.833,254.515 175.499,269.515 174.5,284.5C 171.355,282.21 169.188,279.21 168,275.5C 167.5,266.173 167.334,256.839 167.5,247.5C 164.482,247.335 161.482,247.502 158.5,248C 155.048,251.734 152.215,255.9 150,260.5C 147.963,262.706 145.797,264.706 143.5,266.5C 143.5,264.5 143.5,262.5 143.5,260.5C 148.516,254.323 153.182,247.823 157.5,241C 163.379,239.59 169.379,239.09 175.5,239.5 Z"/></g>
<g><path style="opacity:1" fill="#000F26" d="M 103.5,249.5 C 104.219,251.091 105.219,252.591 106.5,254C 112.408,256.533 116.742,255.033 119.5,249.5C 119.737,253.273 119.237,256.94 118,260.5C 113.631,264.379 109.298,264.379 105,260.5C 103.763,256.94 103.263,253.273 103.5,249.5 Z"/></g>
<g><path style="opacity:0.999" fill="#000F26" d="M 191.5,375.5 C 244.833,375.5 298.167,375.5 351.5,375.5C 355.514,375.334 359.514,375.501 363.5,376C 365.333,376.5 366.5,377.667 367,379.5C 367.667,400.833 367.667,422.167 367,443.5C 366.626,444.416 366.126,445.25 365.5,446C 334.251,447.16 302.917,447.66 271.5,447.5C 240.083,447.66 208.749,447.16 177.5,446C 176.874,445.25 176.374,444.416 176,443.5C 175.333,422.167 175.333,400.833 176,379.5C 176.5,377.667 177.667,376.5 179.5,376C 183.486,375.501 187.486,375.334 191.5,375.5 Z"/></g>
<g><path style="opacity:1" fill="#edefef" d="M 222.5,416.5 C 219.643,423.607 214.31,427.274 206.5,427.5C 199.582,426.707 194.916,423.04 192.5,416.5C 190.382,404.743 195.215,397.743 207,395.5C 219.511,397.216 224.678,404.216 222.5,416.5 Z"/></g>
<g><path style="opacity:1" fill="#9799FB" d="M 192.5,416.5 C 194.916,423.04 199.582,426.707 206.5,427.5C 214.31,427.274 219.643,423.607 222.5,416.5C 223.973,427.888 218.806,434.222 207,435.5C 195.739,433.77 190.905,427.437 192.5,416.5 Z"/></g>
</svg>
