<?xml version="1.0" encoding="UTF-8"?>
<!DOCTYPE svg PUBLIC "-//W3C//DTD SVG 1.1//EN" "http://www.w3.org/Graphics/SVG/1.1/DTD/svg11.dtd">
<svg xmlns="http://www.w3.org/2000/svg" version="1.1" width="512px" height="512px" style="shape-rendering:geometricPrecision; text-rendering:geometricPrecision; image-rendering:optimizeQuality; fill-rule:evenodd; clip-rule:evenodd" xmlns:xlink="http://www.w3.org/1999/xlink">
<g><path style="opacity:1" fill="#9799FB" d="M 340.5,18.5 C 339.338,37.9957 339.171,57.6624 340,77.5C 342.505,85.8406 348.005,90.8406 356.5,92.5C 368.989,93.4954 381.656,93.8287 394.5,93.5C 394.667,155.168 394.5,216.834 394,278.5C 391.401,286.766 385.901,291.932 377.5,294C 317.999,294.167 258.665,294.667 199.5,295.5C 198.506,286.014 198.173,276.348 198.5,266.5C 203.136,262.842 207.803,259.175 212.5,255.5C 216.632,259.146 221.132,262.146 226,264.5C 230.694,261.895 235.194,258.895 239.5,255.5C 243.833,258.833 248.167,262.167 252.5,265.5C 257.106,262.283 261.606,258.95 266,255.5C 270.44,258.269 274.606,261.435 278.5,265C 282.167,265.667 285.833,265.667 289.5,265C 295.432,258.91 300.765,252.41 305.5,245.5C 305.457,244.584 305.124,243.917 304.5,243.5C 303.833,242.167 302.833,241.167 301.5,240.5C 299.906,237.236 297.573,234.569 294.5,232.5C 292.721,230.454 291.054,228.287 289.5,226C 259.168,225.5 228.835,225.333 198.5,225.5C 198.333,162.499 198.5,99.4991 199,36.5C 199.9,27.1795 204.733,21.0129 213.5,18C 256.002,17.1686 298.335,17.3353 340.5,18.5 Z"/></g>
<g><path style="opacity:1" fill="##000F26" d="M 209.5,59.5 C 211.722,59.178 213.556,59.8446 215,61.5C 215.667,98.1667 215.667,134.833 215,171.5C 212.667,174.167 210.333,174.167 208,171.5C 207.333,134.833 207.333,98.1667 208,61.5C 208.717,60.9558 209.217,60.2891 209.5,59.5 Z"/></g>
<g><path style="opacity:0.8" fill="#000F26" d="M 356.5,92.5 C 372.5,92.5 388.5,92.5 404.5,92.5C 404.667,157.834 404.5,223.168 404,288.5C 401.427,296.739 395.927,301.905 387.5,304C 326.478,304.826 265.478,304.659 204.5,303.5C 203.287,303.747 202.62,304.414 202.5,305.5C 200.32,302.619 199.32,299.286 199.5,295.5C 258.665,294.667 317.999,294.167 377.5,294C 385.901,291.932 391.401,286.766 394,278.5C 394.5,216.834 394.667,155.168 394.5,93.5C 381.656,93.8287 368.989,93.4954 356.5,92.5 Z"/></g>
<g><path style="opacity:1" fill="#000F26" d="M 340.5,18.5 C 365.132,42.6317 389.632,66.9651 414,91.5C 414.667,161.167 414.667,230.833 414,300.5C 411.406,307.428 406.573,311.928 399.5,314C 337.833,314.667 276.167,314.667 214.5,314C 209.237,312.875 205.237,310.042 202.5,305.5C 202.62,304.414 203.287,303.747 204.5,303.5C 265.478,304.659 326.478,304.826 387.5,304C 395.927,301.905 401.427,296.739 404,288.5C 404.5,223.168 404.667,157.834 404.5,92.5C 388.5,92.5 372.5,92.5 356.5,92.5C 348.005,90.8406 342.505,85.8406 340,77.5C 339.171,57.6624 339.338,37.9957 340.5,18.5 Z"/></g>
<g><path style="opacity:1" fill="#faf5fe" d="M 236.5,110.5 C 283.168,110.333 329.835,110.5 376.5,111C 379.172,113.679 378.838,116.012 375.5,118C 329.833,118.667 284.167,118.667 238.5,118C 235.489,116.132 234.822,113.632 236.5,110.5 Z"/></g>
<g><path style="opacity:1" fill="#faf5fe" d="M 236.5,150.5 C 283.168,150.333 329.835,150.5 376.5,151C 379.172,153.679 378.838,156.012 375.5,158C 329.833,158.667 284.167,158.667 238.5,158C 235.489,156.132 234.822,153.632 236.5,150.5 Z"/></g>
<g><path style="opacity:0.8" fill="#000F26" d="M 144.5,201.5 C 163.518,226.508 164.351,252.175 147,278.5C 129.38,298.595 107.547,305.428 81.5,299C 74.8346,296.334 68.5013,293.167 62.5,289.5C 49.8843,277.698 43.2176,263.031 42.5,245.5C 47.7909,203.707 71.4576,183.874 113.5,186C 125.534,188.017 135.867,193.184 144.5,201.5 Z M 75.5,231.5 C 91.2132,231.364 96.7132,238.697 92,253.5C 86.619,260.138 80.119,261.638 72.5,258C 62.5871,247.895 63.5871,239.061 75.5,231.5 Z"/></g>
<g><path style="opacity:1" fill="#faf5fe" d="M 236.5,190.5 C 283.168,190.333 329.835,190.5 376.5,191C 379.172,193.679 378.838,196.012 375.5,198C 329.833,198.667 284.167,198.667 238.5,198C 235.489,196.132 234.822,193.632 236.5,190.5 Z"/></g>
<g><path style="opacity:0.999" fill="#000F26" d="M 144.5,201.5 C 151.815,208.115 157.148,216.115 160.5,225.5C 164.087,237.401 164.42,249.401 161.5,261.5C 160.27,263.297 159.604,265.297 159.5,267.5C 149.148,292.152 130.481,305.152 103.5,306.5C 92.508,306.002 82.1747,303.169 72.5,298C 68.5377,295.86 65.2044,293.027 62.5,289.5C 68.5013,293.167 74.8346,296.334 81.5,299C 107.547,305.428 129.38,298.595 147,278.5C 164.351,252.175 163.518,226.508 144.5,201.5 Z"/></g>
<g><path style="opacity:0.8" fill="#000F26" d="M 160.5,225.5 C 173.167,225.5 185.833,225.5 198.5,225.5C 228.835,225.333 259.168,225.5 289.5,226C 291.054,228.287 292.721,230.454 294.5,232.5C 255.165,232.333 215.832,232.5 176.5,233C 173.162,234.988 172.828,237.321 175.5,240C 217.499,240.5 259.499,240.667 301.5,240.5C 302.833,241.167 303.833,242.167 304.5,243.5C 299.71,249.461 294.71,255.294 289.5,261C 285.833,261.667 282.167,261.667 278.5,261C 274.606,257.435 270.44,254.269 266,251.5C 261.622,254.716 257.122,257.716 252.5,260.5C 247.992,257.747 243.659,254.747 239.5,251.5C 234.889,254.385 230.389,257.385 226,260.5C 221.611,257.385 217.111,254.385 212.5,251.5C 207.996,253.932 203.996,257.099 200.5,261C 187.504,261.5 174.504,261.667 161.5,261.5C 164.42,249.401 164.087,237.401 160.5,225.5 Z"/></g>
<g><path style="opacity:0.7" fill="#000F26" d="M 294.5,232.5 C 297.573,234.569 299.906,237.236 301.5,240.5C 259.499,240.667 217.499,240.5 175.5,240C 172.828,237.321 173.162,234.988 176.5,233C 215.832,232.5 255.165,232.333 294.5,232.5 Z"/></g>
<g><path style="opacity:1" fill="#000F26" d="M 304.5,243.5 C 305.124,243.917 305.457,244.584 305.5,245.5C 300.765,252.41 295.432,258.91 289.5,265C 285.833,265.667 282.167,265.667 278.5,265C 274.606,261.435 270.44,258.269 266,255.5C 261.606,258.95 257.106,262.283 252.5,265.5C 248.167,262.167 243.833,258.833 239.5,255.5C 235.194,258.895 230.694,261.895 226,264.5C 221.132,262.146 216.632,259.146 212.5,255.5C 207.803,259.175 203.136,262.842 198.5,266.5C 185.421,266.186 172.421,266.52 159.5,267.5C 159.604,265.297 160.27,263.297 161.5,261.5C 174.504,261.667 187.504,261.5 200.5,261C 203.996,257.099 207.996,253.932 212.5,251.5C 217.111,254.385 221.611,257.385 226,260.5C 230.389,257.385 234.889,254.385 239.5,251.5C 243.659,254.747 247.992,257.747 252.5,260.5C 257.122,257.716 261.622,254.716 266,251.5C 270.44,254.269 274.606,257.435 278.5,261C 282.167,261.667 285.833,261.667 289.5,261C 294.71,255.294 299.71,249.461 304.5,243.5 Z"/></g>
<g><path style="opacity:0.993" fill="#9799FB" d="M 462.5,319.5 C 461.607,325.028 459.774,330.361 457,335.5C 414.5,378 372,420.5 329.5,463C 319.403,470.713 308.07,475.713 295.5,478C 211.501,478.5 127.501,478.667 43.5,478.5C 43.3334,450.831 43.5,423.165 44,395.5C 44.5,395 45,394.5 45.5,394C 76.8333,393.667 108.167,393.333 139.5,393C 154.138,377.362 169.138,362.029 184.5,347C 192.126,340.855 200.793,336.855 210.5,335C 236.805,333.409 263.138,333.076 289.5,334C 297.249,334.541 303.583,337.708 308.5,343.5C 314.515,364.974 306.848,378.807 285.5,385C 268.833,385.333 252.167,385.667 235.5,386C 232.735,388.966 233.068,391.633 236.5,394C 256.52,394.772 276.52,394.606 296.5,393.5C 311.504,393.667 326.504,393.5 341.5,393C 344.618,391.941 347.618,390.608 350.5,389C 375.167,364.333 399.833,339.667 424.5,315C 435.26,308.066 446.26,307.733 457.5,314C 459.373,315.704 461.04,317.537 462.5,319.5 Z"/></g>
<g><path style="opacity:1" fill="#9799FB" d="M 462.5,319.5 C 469.287,329.177 469.787,339.177 464,349.5C 420.833,392.667 377.667,435.833 334.5,479C 324.626,486.185 313.626,490.851 301.5,493C 216.167,493.667 130.833,493.667 45.5,493C 45,492.5 44.5,492 44,491.5C 43.501,487.179 43.3343,482.846 43.5,478.5C 127.501,478.667 211.501,478.5 295.5,478C 308.07,475.713 319.403,470.713 329.5,463C 372,420.5 414.5,378 457,335.5C 459.774,330.361 461.607,325.028 462.5,319.5 Z"/></g>
<g><path style="opacity:0.3" fill="#000F26" d="M 274.5,345.5 C 293.915,344.304 301.748,353.304 298,372.5C 292.947,382.058 285.113,385.225 274.5,382C 274,381.5 273.5,381 273,380.5C 272.333,369.5 272.333,358.5 273,347.5C 273.717,346.956 274.217,346.289 274.5,345.5 Z"/></g>
<g><path style="opacity:0.8" fill="#000F26" d="M 308.5,343.5 C 314.387,349.133 317.387,356.133 317.5,364.5C 316.192,378.45 309.192,388.117 296.5,393.5C 276.52,394.606 256.52,394.772 236.5,394C 233.068,391.633 232.735,388.966 235.5,386C 252.167,385.667 268.833,385.333 285.5,385C 306.848,378.807 314.515,364.974 308.5,343.5 Z"/></g>
</svg>
