<?xml version="1.0" encoding="UTF-8"?>
<!DOCTYPE svg PUBLIC "-//W3C//DTD SVG 1.1//EN" "http://www.w3.org/Graphics/SVG/1.1/DTD/svg11.dtd">
<svg xmlns="http://www.w3.org/2000/svg" version="1.1" width="512px" height="512px" style="shape-rendering:geometricPrecision; text-rendering:geometricPrecision; image-rendering:optimizeQuality; fill-rule:evenodd; clip-rule:evenodd" xmlns:xlink="http://www.w3.org/1999/xlink">
<g><path style="opacity:0.994" fill="#fff" d="M 121.5,31.5 C 210.834,31.3333 300.167,31.5 389.5,32C 396.487,34.8068 399.82,39.9735 399.5,47.5C 399.82,55.0265 396.487,60.1932 389.5,63C 300.167,63.6667 210.833,63.6667 121.5,63C 114.513,60.1932 111.18,55.0265 111.5,47.5C 111.302,39.8846 114.635,34.5513 121.5,31.5 Z"/></g>
<g><path style="opacity:0.996" fill="#fff" d="M 73.5,95.5 C 194.834,95.3333 316.167,95.5 437.5,96C 444.487,98.8068 447.82,103.973 447.5,111.5C 447.82,119.027 444.487,124.193 437.5,127C 316.167,127.667 194.833,127.667 73.5,127C 66.513,124.193 63.1797,119.027 63.5,111.5C 63.3021,103.885 66.6354,98.5513 73.5,95.5 Z"/></g>
<g><path style="opacity:0.994" fill="#fff" d="M 69.5,159.5 C 193.5,159.333 317.5,159.5 441.5,160C 461.333,165.167 473.833,177.667 479,197.5C 479.667,278.833 479.667,360.167 479,441.5C 473.833,461.333 461.333,473.833 441.5,479C 317.5,479.667 193.5,479.667 69.5,479C 49.6667,473.833 37.1667,461.333 32,441.5C 31.3333,360.167 31.3333,278.833 32,197.5C 37.3488,177.652 49.8488,164.985 69.5,159.5 Z M 79.5,191.5 C 196.834,191.333 314.167,191.5 431.5,192C 440.667,193.167 445.833,198.333 447,207.5C 447.667,282.167 447.667,356.833 447,431.5C 445.833,440.667 440.667,445.833 431.5,447C 314.167,447.667 196.833,447.667 79.5,447C 70.3333,445.833 65.1667,440.667 64,431.5C 63.3333,356.833 63.3333,282.167 64,207.5C 65.3459,198.322 70.5125,192.989 79.5,191.5 Z M 207.5,282.5 C 232.423,294.295 257.09,306.628 281.5,319.5C 257.322,332.089 232.989,344.422 208.5,356.5C 207.5,331.842 207.167,307.176 207.5,282.5 Z"/></g>
<g><path style="opacity:0.976" fill="#fff" d="M 185.5,239.5 C 189.514,239.334 193.514,239.501 197.5,240C 241.5,262 285.5,284 329.5,306C 336.069,312.945 337.236,320.778 333,329.5C 331.833,330.667 330.667,331.833 329.5,333C 285.5,355 241.5,377 197.5,399C 187.64,401.649 180.473,398.482 176,389.5C 175.333,342.833 175.333,296.167 176,249.5C 178.022,244.98 181.189,241.647 185.5,239.5 Z M 207.5,282.5 C 207.167,307.176 207.5,331.842 208.5,356.5C 232.989,344.422 257.322,332.089 281.5,319.5C 257.09,306.628 232.423,294.295 207.5,282.5 Z"/></g>
</svg>
