<?xml version="1.0" encoding="UTF-8"?>
<!DOCTYPE svg PUBLIC "-//W3C//DTD SVG 1.1//EN" "http://www.w3.org/Graphics/SVG/1.1/DTD/svg11.dtd">
<svg xmlns="http://www.w3.org/2000/svg" version="1.1" width="512px" height="512px" style="shape-rendering:geometricPrecision; text-rendering:geometricPrecision; image-rendering:optimizeQuality; fill-rule:evenodd; clip-rule:evenodd" xmlns:xlink="http://www.w3.org/1999/xlink">
<g><path style="opacity:1" fill="#fabe2c" d="M 376.5,-0.5 C 382.5,-0.5 388.5,-0.5 394.5,-0.5C 404.258,3.08622 411.758,9.41955 417,18.5C 448.818,81.8015 480.318,145.135 511.5,208.5C 511.5,214.167 511.5,219.833 511.5,225.5C 506.116,242.543 494.449,251.21 476.5,251.5C 470.167,251.5 463.833,251.5 457.5,251.5C 479.475,246.317 489.309,232.317 487,209.5C 455.543,144.587 423.543,79.92 391,15.5C 387.2,9.53305 382.033,5.19971 375.5,2.5C 374.702,2.04311 374.369,1.37644 374.5,0.5C 375.492,0.67158 376.158,0.338246 376.5,-0.5 Z"/></g>
<g><path style="opacity:0.999" fill="#ffe04d" d="M 374.5,0.5 C 374.369,1.37644 374.702,2.04311 375.5,2.5C 382.033,5.19971 387.2,9.53305 391,15.5C 423.543,79.92 455.543,144.587 487,209.5C 489.309,232.317 479.475,246.317 457.5,251.5C 456.167,251.5 454.833,251.5 453.5,251.5C 449.833,251.5 446.167,251.5 442.5,251.5C 417.167,251.5 391.833,251.5 366.5,251.5C 358.5,251.5 350.5,251.5 342.5,251.5C 335.833,251.5 329.167,251.5 322.5,251.5C 317.5,251.5 312.5,251.5 307.5,251.5C 294.268,253.657 282.268,250.99 271.5,243.5C 261.015,233.204 257.515,220.871 261,206.5C 264.784,199.266 268.284,191.933 271.5,184.5C 282.341,164.151 292.675,143.484 302.5,122.5C 309.072,110.358 315.405,98.0243 321.5,85.5C 325.167,78.1667 328.833,70.8333 332.5,63.5C 334.391,60.3858 335.724,57.0525 336.5,53.5C 343.065,40.037 349.898,26.7036 357,13.5C 361.557,7.44234 367.39,3.109 374.5,0.5 Z"/></g>
<g><path style="opacity:0.992" fill="#fd697f" d="M 227.5,33.5 C 250.959,35.5263 273.959,40.3596 296.5,48C 308.648,52.9098 320.648,58.0764 332.5,63.5C 328.833,70.8333 325.167,78.1667 321.5,85.5C 278.151,67.1804 233.485,63.347 187.5,74C 108.442,97.7253 58.6082,149.559 38,229.5C 26.2441,291.967 39.4107,348.467 77.5,399C 80.8333,401 84.1667,401 87.5,399C 96.3683,389.964 105.368,381.131 114.5,372.5C 117.209,377.591 119.709,382.925 122,388.5C 124.996,393.651 128.162,398.651 131.5,403.5C 124.869,410.632 118.036,417.632 111,424.5C 110.21,427.634 110.543,430.634 112,433.5C 163.838,472.58 221.672,485.414 285.5,472C 367.049,449.117 418.216,396.617 439,314.5C 443.186,293.656 444.353,272.656 442.5,251.5C 446.167,251.5 449.833,251.5 453.5,251.5C 457.643,346.378 420.976,420.545 343.5,474C 308.994,495.224 271.661,507.724 231.5,511.5C 226.833,511.5 222.167,511.5 217.5,511.5C 132.755,501.393 69.2553,459.393 27,385.5C 12.0755,356.778 2.90886,326.445 -0.5,294.5C -0.5,279.833 -0.5,265.167 -0.5,250.5C 8.57245,175.502 43.9058,116.336 105.5,73C 142.479,48.7299 183.146,35.5632 227.5,33.5 Z"/></g>
<g><path style="opacity:1" fill="#fc4761" d="M 227.5,33.5 C 265.396,31.8709 301.729,38.5376 336.5,53.5C 335.724,57.0525 334.391,60.3858 332.5,63.5C 320.648,58.0764 308.648,52.9098 296.5,48C 273.959,40.3596 250.959,35.5263 227.5,33.5 Z"/></g>
<g><path style="opacity:1" fill="#fff4f3" d="M 374.5,63.5 C 382.585,63.0989 390.585,63.5989 398.5,65C 403.731,67.2315 407.231,71.0648 409,76.5C 407.997,95.1966 406.331,113.863 404,132.5C 403.04,140.254 398.873,145.42 391.5,148C 379.26,150.74 371.094,146.24 367,134.5C 365.529,116.628 363.696,98.7949 361.5,81C 362.242,72.4338 366.575,66.6004 374.5,63.5 Z"/></g>
<g><path style="opacity:1" fill="#fff4f4" d="M 321.5,85.5 C 315.405,98.0243 309.072,110.358 302.5,122.5C 290.585,117.176 279.918,118.842 270.5,127.5C 268.831,129.509 267.164,131.509 265.5,133.5C 264.803,128.062 263.637,122.729 262,117.5C 260.629,114.734 258.796,112.401 256.5,110.5C 251.601,104.747 245.268,102.08 237.5,102.5C 230.237,102.467 224.237,105.134 219.5,110.5C 216.063,113.701 213.896,117.701 213,122.5C 212.832,132.184 212.332,141.851 211.5,151.5C 209.719,148.909 207.719,146.575 205.5,144.5C 197.713,136.455 188.38,134.289 177.5,138C 169.791,142.042 164.624,148.209 162,156.5C 161.5,177.164 161.333,197.831 161.5,218.5C 161.829,224.537 161.496,230.537 160.5,236.5C 157.962,233.281 155.296,230.114 152.5,227C 149.52,224.676 146.187,223.176 142.5,222.5C 126.889,219.903 116.389,226.237 111,241.5C 110.333,278.167 110.333,314.833 111,351.5C 112.331,358.487 113.498,365.487 114.5,372.5C 105.368,381.131 96.3683,389.964 87.5,399C 84.1667,401 80.8333,401 77.5,399C 39.4107,348.467 26.2441,291.967 38,229.5C 58.6082,149.559 108.442,97.7253 187.5,74C 233.485,63.347 278.151,67.1804 321.5,85.5 Z"/></g>
<g><path style="opacity:1" fill="#fedece" d="M 256.5,110.5 C 256.333,162.834 256.5,215.168 257,267.5C 261.714,272.823 266.38,272.823 271,267.5C 271.5,259.507 271.666,251.507 271.5,243.5C 282.268,250.99 294.268,253.657 307.5,251.5C 307.334,259.174 307.5,266.841 308,274.5C 311.598,281.616 316.264,282.282 322,276.5C 322.5,268.173 322.666,259.84 322.5,251.5C 329.167,251.5 335.833,251.5 342.5,251.5C 342.667,284.835 342.5,318.168 342,351.5C 336.436,391.397 315.269,419.563 278.5,436C 268.601,439.475 258.601,441.975 248.5,443.5C 232.83,443.667 217.163,443.5 201.5,443C 172.898,438.873 149.565,425.707 131.5,403.5C 128.162,398.651 124.996,393.651 122,388.5C 119.709,382.925 117.209,377.591 114.5,372.5C 113.498,365.487 112.331,358.487 111,351.5C 110.333,314.833 110.333,278.167 111,241.5C 116.389,226.237 126.889,219.903 142.5,222.5C 147.143,224.979 150.643,228.645 153,233.5C 153.333,253.5 153.667,273.5 154,293.5C 155.717,298.549 158.884,302.382 163.5,305C 200.35,310.849 220.184,332.349 223,369.5C 227.667,376.167 232.333,376.167 237,369.5C 237.139,333.611 220.639,308.778 187.5,295C 181.654,292.997 175.654,291.831 169.5,291.5C 169.667,271.831 169.5,252.164 169,232.5C 167.772,227.038 165.272,222.371 161.5,218.5C 161.333,197.831 161.5,177.164 162,156.5C 164.624,148.209 169.791,142.042 177.5,138C 188.38,134.289 197.713,136.455 205.5,144.5C 205.333,185.501 205.5,226.501 206,267.5C 208.513,271.212 212.013,272.378 216.5,271C 218.049,269.786 219.215,268.286 220,266.5C 220.832,214.332 220.665,162.332 219.5,110.5C 224.237,105.134 230.237,102.467 237.5,102.5C 245.268,102.08 251.601,104.747 256.5,110.5 Z"/></g>
<g><path style="opacity:1" fill="#f8c4bc" d="M 219.5,110.5 C 220.665,162.332 220.832,214.332 220,266.5C 219.215,268.286 218.049,269.786 216.5,271C 212.013,272.378 208.513,271.212 206,267.5C 205.5,226.501 205.333,185.501 205.5,144.5C 207.719,146.575 209.719,148.909 211.5,151.5C 212.332,141.851 212.832,132.184 213,122.5C 213.896,117.701 216.063,113.701 219.5,110.5 Z"/></g>
<g><path style="opacity:1" fill="#f8c4bb" d="M 256.5,110.5 C 258.796,112.401 260.629,114.734 262,117.5C 263.637,122.729 264.803,128.062 265.5,133.5C 267.164,131.509 268.831,129.509 270.5,127.5C 271.497,146.326 271.83,165.326 271.5,184.5C 268.284,191.933 264.784,199.266 261,206.5C 257.515,220.871 261.015,233.204 271.5,243.5C 271.666,251.507 271.5,259.507 271,267.5C 266.38,272.823 261.714,272.823 257,267.5C 256.5,215.168 256.333,162.834 256.5,110.5 Z"/></g>
<g><path style="opacity:1" fill="#fedecd" d="M 302.5,122.5 C 292.675,143.484 282.341,164.151 271.5,184.5C 271.83,165.326 271.497,146.326 270.5,127.5C 279.918,118.842 290.585,117.176 302.5,122.5 Z"/></g>
<g><path style="opacity:1" fill="#fff4f2" d="M 379.5,183.5 C 394.571,182.068 402.071,188.734 402,203.5C 397.332,215.918 388.832,219.752 376.5,215C 368.245,208.363 366.412,200.196 371,190.5C 373.441,187.546 376.275,185.213 379.5,183.5 Z"/></g>
<g><path style="opacity:1" fill="#f8c4bc" d="M 161.5,218.5 C 165.272,222.371 167.772,227.038 169,232.5C 169.5,252.164 169.667,271.831 169.5,291.5C 175.654,291.831 181.654,292.997 187.5,295C 220.639,308.778 237.139,333.611 237,369.5C 232.333,376.167 227.667,376.167 223,369.5C 220.184,332.349 200.35,310.849 163.5,305C 158.884,302.382 155.717,298.549 154,293.5C 153.667,273.5 153.333,253.5 153,233.5C 150.643,228.645 147.143,224.979 142.5,222.5C 146.187,223.176 149.52,224.676 152.5,227C 155.296,230.114 157.962,233.281 160.5,236.5C 161.496,230.537 161.829,224.537 161.5,218.5 Z"/></g>
<g><path style="opacity:1" fill="#f8c4bc" d="M 307.5,251.5 C 312.5,251.5 317.5,251.5 322.5,251.5C 322.666,259.84 322.5,268.173 322,276.5C 316.264,282.282 311.598,281.616 308,274.5C 307.5,266.841 307.334,259.174 307.5,251.5 Z"/></g>
<g><path style="opacity:1" fill="#f8c4bc" d="M 342.5,251.5 C 350.5,251.5 358.5,251.5 366.5,251.5C 366.667,285.168 366.5,318.835 366,352.5C 359.963,391.866 338.797,419.7 302.5,436C 285.043,442.114 267.043,444.614 248.5,443.5C 258.601,441.975 268.601,439.475 278.5,436C 315.269,419.563 336.436,391.397 342,351.5C 342.5,318.168 342.667,284.835 342.5,251.5 Z"/></g>
<g><path style="opacity:1" fill="#fff4f4" d="M 366.5,251.5 C 391.833,251.5 417.167,251.5 442.5,251.5C 444.353,272.656 443.186,293.656 439,314.5C 418.216,396.617 367.049,449.117 285.5,472C 221.672,485.414 163.838,472.58 112,433.5C 110.543,430.634 110.21,427.634 111,424.5C 118.036,417.632 124.869,410.632 131.5,403.5C 149.565,425.707 172.898,438.873 201.5,443C 217.163,443.5 232.83,443.667 248.5,443.5C 267.043,444.614 285.043,442.114 302.5,436C 338.797,419.7 359.963,391.866 366,352.5C 366.5,318.835 366.667,285.168 366.5,251.5 Z"/></g>
<g><path style="opacity:1" fill="#fc455f" d="M 453.5,251.5 C 454.833,251.5 456.167,251.5 457.5,251.5C 463.833,251.5 470.167,251.5 476.5,251.5C 482.155,343.112 448.155,415.945 374.5,470C 339.899,493.255 301.899,507.088 260.5,511.5C 250.833,511.5 241.167,511.5 231.5,511.5C 271.661,507.724 308.994,495.224 343.5,474C 420.976,420.545 457.643,346.378 453.5,251.5 Z"/></g>
</svg>
