<svg xmlns="http://www.w3.org/2000/svg" version="1.1" xmlns:xlink="http://www.w3.org/1999/xlink" xmlns:svgjs="http://svgjs.dev/svgjs" width="1440" height="560" preserveAspectRatio="none" viewBox="0 0 1440 560"><g mask="url(&quot;#SvgjsMask1032&quot;)" fill="none"><rect width="1440" height="560" x="0" y="0" fill="rgba(234, 234, 240, 1)"></rect><path d="M0,435.341C81.559,425.838,154.758,392.285,226.871,353.018C304.268,310.874,396.228,277.803,434.817,198.574C473.596,118.955,431.921,26.85,428.843,-61.658C425.313,-163.184,482.853,-283.986,415.396,-359.943C347.774,-436.086,221.746,-402.073,120.162,-409.235C39.675,-414.91,-39.289,-420.203,-116.704,-397.458C-194.109,-374.716,-267.814,-338.774,-322.268,-279.247C-377.603,-218.758,-396.943,-138.252,-424.464,-61.029C-458.924,35.663,-536.947,132.926,-503.782,230.07C-470.782,326.729,-358.183,371.624,-263.596,410.164C-180.166,444.158,-89.485,445.767,0,435.341" fill="#d4d4e0"></path><path d="M1440 1072.588C1548.271 1063.493 1663.512 1108.231 1758.938 1056.277 1856.295 1003.2719999999999 1909.229 896.0899999999999 1952.011 793.828 1993.775 694 2028.7269999999999 583.848 2000.26 479.447 1972.87 378.993 1862.525 330.956 1802.587 245.817 1733.252 147.32999999999998 1737.885-27.096000000000004 1621.588-58.43299999999999 1504.419-90.005 1423.44 73.32100000000003 1308.669 112.72800000000001 1201.858 149.402 1063.12 84.87700000000001 980.3720000000001 161.73000000000002 898.176 238.07100000000003 934.2529999999999 374.332 909.254 483.69 881.438 605.372 791.623 720.56 825.14 840.797 859.494 964.034 964.947 1067.792 1084.659 1112.921 1198.51 1155.8400000000001 1318.755 1082.7730000000001 1440 1072.588" fill="#ffffff"></path></g><defs><mask id="SvgjsMask1032"><rect width="1440" height="560" fill="#ffffff"></rect></mask></defs></svg>